<?xml version="1.0" encoding="UTF-8" standalone="no"?>
<!-- Created with Inkscape (http://www.inkscape.org/) -->

<svg
   xmlns:dc="http://purl.org/dc/elements/1.1/"
   xmlns:cc="http://creativecommons.org/ns#"
   xmlns:rdf="http://www.w3.org/1999/02/22-rdf-syntax-ns#"
   xmlns:svg="http://www.w3.org/2000/svg"
   xmlns="http://www.w3.org/2000/svg"
   xmlns:sodipodi="http://sodipodi.sourceforge.net/DTD/sodipodi-0.dtd"
   xmlns:inkscape="http://www.inkscape.org/namespaces/inkscape"
   width="600"
   height="600"
   viewBox="0 0 600.00001 600.00001"
   id="svg3374"
   version="1.1"
   inkscape:version="0.91 r13725"
   sodipodi:docname="logo-bg.svg"
   inkscape:export-filename="/Users/parasyte/projects/websites/melonjs.org/media/logo-bg.png"
   inkscape:export-xdpi="90"
   inkscape:export-ydpi="90">
  <defs
     id="defs3376" />
  <sodipodi:namedview
     id="base"
     pagecolor="#ffffff"
     bordercolor="#666666"
     borderopacity="1.0"
     inkscape:pageopacity="0.0"
     inkscape:pageshadow="2"
     inkscape:zoom="1.3383333"
     inkscape:cx="181.56912"
     inkscape:cy="300"
     inkscape:document-units="px"
     inkscape:current-layer="layer1"
     showgrid="false"
     units="px"
     inkscape:window-width="1676"
     inkscape:window-height="1005"
     inkscape:window-x="0"
     inkscape:window-y="0"
     inkscape:window-maximized="1" />
  <metadata
     id="metadata3379">
    <rdf:RDF>
      <cc:Work
         rdf:about="">
        <dc:format>image/svg+xml</dc:format>
        <dc:type
           rdf:resource="http://purl.org/dc/dcmitype/StillImage" />
        <dc:title />
      </cc:Work>
    </rdf:RDF>
  </metadata>
  <g
     inkscape:groupmode="layer"
     id="layer2"
     inkscape:label="Layer 2"
     style="display:inline" />
  <g
     inkscape:label="Layer 1"
     inkscape:groupmode="layer"
     id="layer1"
     transform="translate(0,-452.36216)">
    <path
       style="fill:#5ebd00;fill-opacity:1;stroke:none;stroke-width:14.217;stroke-miterlimit:4;stroke-dasharray:none"
       d="M 45.248704,741.25521 C 102.5745,854.14905 258.2743,893.59435 393.0308,829.34661 527.78724,765.09892 590.54085,621.5018 533.21508,508.60799 l -0.15743,0.0749 C 549.6941,551.69541 458.85754,635.85422 326.75872,698.83485 194.65773,761.81647 70.421944,780.19854 45.405824,741.18019 l -0.15743,0.0749 z"
       id="path3798"
       inkscape:connector-curvature="0" />
    <path
       style="fill:none;fill-opacity:1;stroke:#5ebd00;stroke-width:14.217;stroke-miterlimit:4;stroke-dasharray:none;stroke-opacity:1"
       d="M 468.60742,485.85825 A 88.379959,263.75894 63.801308 0 0 251.52539,547.3895 88.379959,263.75894 63.801308 0 0 53.880859,743.1356 88.379959,263.75894 63.801308 0 0 329.5625,705.99107 88.379959,263.75894 63.801308 0 0 527.20703,510.24497 88.379959,263.75894 63.801308 0 0 468.60742,485.85825 Z m -8.88867,3.48829 A 84.208823,256.65643 63.736829 0 1 520.89453,512.18833 84.208823,256.65643 63.736829 0 1 327.85742,701.2938 84.208823,256.65643 63.736829 0 1 60.533203,739.24888 84.208823,256.65643 63.736829 0 1 253.57031,550.14341 84.208823,256.65643 63.736829 0 1 459.71875,489.34654 Z"
       id="path3876"
       inkscape:connector-curvature="0" />
  </g>
  <g
     inkscape:groupmode="layer"
     id="layer3"
     inkscape:label="Layer 3" />
  <g
     inkscape:groupmode="layer"
     id="layer4"
     inkscape:label="Layer 4" />
</svg>
