<?xml version="1.0" encoding="UTF-8" standalone="no"?>
<!-- Created with Inkscape (http://www.inkscape.org/) -->

<svg
   width="387.89972mm"
   height="254.03391mm"
   viewBox="0 0 387.89973 254.03391"
   version="1.1"
   id="svg5"
   inkscape:version="1.2 (dc2aeda, 2022-05-15)"
   sodipodi:docname="art-chart.svg"
   xmlns:inkscape="http://www.inkscape.org/namespaces/inkscape"
   xmlns:sodipodi="http://sodipodi.sourceforge.net/DTD/sodipodi-0.dtd"
   xmlns="http://www.w3.org/2000/svg"
   xmlns:svg="http://www.w3.org/2000/svg">
  <sodipodi:namedview
     id="namedview7"
     pagecolor="#ffffff"
     bordercolor="#000000"
     borderopacity="0.25"
     inkscape:showpageshadow="2"
     inkscape:pageopacity="0.0"
     inkscape:pagecheckerboard="0"
     inkscape:deskcolor="#d1d1d1"
     inkscape:document-units="mm"
     showgrid="false"
     inkscape:zoom="0.5946522"
     inkscape:cx="810.55783"
     inkscape:cy="549.90127"
     inkscape:window-width="1680"
     inkscape:window-height="1050"
     inkscape:window-x="0"
     inkscape:window-y="0"
     inkscape:window-maximized="0"
     inkscape:current-layer="g33365" />
  <defs
     id="defs2">
    <rect
       x="58.857933"
       y="504.49658"
       width="1002.2665"
       height="287.56305"
       id="rect16997" />
    <rect
       x="58.857933"
       y="504.49658"
       width="1002.2665"
       height="287.56305"
       id="rect16997-6" />
    <rect
       x="58.857933"
       y="504.49658"
       width="1002.2665"
       height="287.56305"
       id="rect16997-0" />
    <rect
       x="58.857933"
       y="504.49658"
       width="1002.2665"
       height="287.56305"
       id="rect16997-0-3" />
  </defs>
  <g
     inkscape:label="Layer 1"
     inkscape:groupmode="layer"
     id="layer1"
     transform="translate(76.542936,-35.869448)">
    <g
       id="g28462"
       inkscape:label="venn">
      <path
         id="path186-9-9"
         style="display:inline;fill:#ffffff;fill-opacity:1;stroke:#474747;stroke-width:6.485;stroke-linecap:round;stroke-linejoin:round;stroke-dasharray:none;stroke-opacity:1"
         d="m 172.59212,152.25243 a 48.498238,48.498238 0 0 1 -48.49824,48.49823 48.498238,48.498238 0 0 1 -48.498238,-48.49823 48.498238,48.498238 0 0 1 48.498238,-48.49824 48.498238,48.498238 0 0 1 48.49824,48.49824 z m -33.81527,1.3348 A 48.498238,48.498238 0 0 1 90.27861,202.08547 48.498238,48.498238 0 0 1 41.780373,153.58723 48.498238,48.498238 0 0 1 90.27861,105.089 a 48.498238,48.498238 0 0 1 48.49824,48.49823 z m 16.90764,-23.58171 a 48.498238,48.498238 0 0 1 -48.49824,48.49824 48.498238,48.498238 0 0 1 -48.498239,-48.49824 48.498238,48.498238 0 0 1 48.498239,-48.498234 48.498238,48.498238 0 0 1 48.49824,48.498234 z"
         inkscape:label="path186-9-9" />
      <circle
         style="fill:#5cff78;fill-opacity:0.33;stroke-width:12.8854;stroke-linecap:round;stroke-linejoin:round"
         id="path186"
         cx="107.18625"
         cy="130.00552"
         r="48.498238"
         inkscape:label="path186" />
      <circle
         style="fill:#ff5cb4;fill-opacity:0.33;stroke-width:12.8854;stroke-linecap:round;stroke-linejoin:round"
         id="path186-97"
         cx="90.27861"
         cy="153.58723"
         r="48.498238" />
      <circle
         style="display:inline;fill:#5cc2ff;fill-opacity:0.33241;stroke-width:12.885;stroke-linecap:round;stroke-linejoin:round;stroke-dasharray:none"
         id="path186-9"
         cx="124.09388"
         cy="152.25243"
         r="48.498238" />
      <circle
         style="fill:#f4fda9;fill-opacity:0.99723;stroke:#6d7b00;stroke-width:1.154;stroke-linecap:round;stroke-linejoin:round;stroke-dasharray:1.154, 2.308;stroke-dashoffset:0;stroke-opacity:1"
         id="path8509"
         cx="102.48427"
         cy="138.0793"
         r="4.0934291"
         transform="translate(1.0416666e-6)" />
      <circle
         style="fill:#fdcba9;fill-opacity:0.99723;stroke:#6f2f02;stroke-width:1.154;stroke-linecap:round;stroke-linejoin:round;stroke-dasharray:1.154, 2.308;stroke-dashoffset:0;stroke-opacity:1"
         id="path8509-3"
         cx="111.3241"
         cy="146.06172"
         r="4.0934291"
         transform="translate(1.0416666e-6)" />
      <circle
         style="fill:#b9e5c2;fill-opacity:1;stroke:#235e2f;stroke-width:1.154;stroke-linecap:round;stroke-linejoin:round;stroke-dasharray:1.154, 2.308;stroke-dashoffset:0;stroke-opacity:1"
         id="path8509-9"
         cx="126.89694"
         cy="185.21625"
         r="4.0934291"
         transform="translate(1.0416666e-6)" />
      <circle
         style="display:inline;fill:#c8b9e5;fill-opacity:1;stroke:#583996;stroke-width:1.154;stroke-linecap:round;stroke-linejoin:round;stroke-dasharray:1.154, 2.308;stroke-dashoffset:0;stroke-opacity:1"
         id="path8509-9-0"
         cx="141.70885"
         cy="122.03506"
         r="4.0934291"
         transform="translate(1.0416666e-6)" />
    </g>
    <g
       id="g33365"
       inkscape:label="labels">
      <g
         aria-label="Free"
         transform="rotate(-7.7976589,10.832412,33.532631)"
         id="text1741"
         style="font-size:50.8px;line-height:0;font-family:'Cormorant SC';-inkscape-font-specification:'Cormorant SC';letter-spacing:0.981604px;display:inline;fill:#ff5cb4;stroke:#800045;stroke-width:1.454;stroke-linecap:round;stroke-linejoin:round;stroke-opacity:1">
        <path
           d="m -66.433325,152.13668 q 0,0.1016 -0.3048,0.1524 -0.254,0.0508 -0.3048,-0.1016 -0.8128,-2.9464 -2.7432,-4.3688 -1.9304,-1.4224 -5.08,-1.4224 h -1.524 q -1.524,0 -2.2352,0.6604 -0.7112,0.6604 -0.7112,2.032 v 10.9728 h 3.6576 q 2.9464,0 4.4704,-1.016 1.5748,-1.0668 1.5748,-2.8956 0,-0.1016 0.3048,-0.1016 0.3048,0 0.3048,0.1016 l -0.0508,4.6228 q 0,1.6256 0.0508,2.4384 l 0.0508,2.6924 q 0,0.1524 -0.3048,0.1524 -0.3048,0 -0.3048,-0.1524 0,-2.032 -1.6256,-3.2004 -1.5748,-1.2192 -4.5212,-1.2192 h -3.6068 v 10.8712 q 0,1.5748 0.4064,2.3368 0.4064,0.762 1.524,1.0668 1.1176,0.3048 3.5052,0.3048 0.1016,0 0.1016,0.3048 0,0.3048 -0.1016,0.3048 -2.0828,0 -3.2512,-0.0508 l -5.1816,-0.0508 -3.81,0.0508 q -1.016,0.0508 -2.794,0.0508 -0.1524,0 -0.1524,-0.3048 0,-0.3048 0.1524,-0.3048 1.778,0 2.5908,-0.254 0.8128,-0.254 1.0668,-0.9652 0.3048,-0.762 0.3048,-2.286 v -23.5204 q 0,-1.524 -0.254,-2.2352 -0.254,-0.7112 -1.016,-0.9652 -0.762,-0.3048 -2.3368,-0.3048 -0.1524,0 -0.1524,-0.3048 0,-0.3048 0.1524,-0.3048 h 21.5392 q 0.508,0 0.508,0.4572 z"
           style="font-weight:bold;-inkscape-font-specification:'Cormorant SC Bold';stroke:#844e6b;stroke-opacity:1"
           id="path33416" />
        <path
           d="m -34.412955,176.06348 q 0.1524,0 0.1524,0.3048 0,0.3048 -0.1524,0.3048 h -8.3312 q -0.762,0 -2.7432,-3.048 -1.9304,-3.048 -4.6228,-8.382 -1.066799,0.1524 -2.133599,0.1524 h -0.8636 v 7.1628 q 0,1.5748 0.2032,2.286 0.254,0.7112 0.8636,0.9652 0.6604,0.254 2.082799,0.254 0.1016,0 0.1016,0.3048 0,0.3048 -0.1016,0.3048 -1.523999,0 -2.387599,-0.0508 l -3.4544,-0.0508 -3.302,0.0508 q -0.9144,0.0508 -2.54,0.0508 -0.1016,0 -0.1016,-0.3048 0,-0.3048 0.1016,-0.3048 1.4224,0 2.0828,-0.254 0.6604,-0.254 0.9144,-0.9652 0.254,-0.762 0.254,-2.286 v -15.5448 q 0,-1.524 -0.254,-2.2352 -0.2032,-0.7112 -0.8636,-0.9652 -0.6604,-0.3048 -2.032,-0.3048 -0.1524,0 -0.1524,-0.3048 0,-0.3048 0.1524,-0.3048 l 2.4892,0.0508 q 2.032,0.1016 3.2512,0.1016 0.9652,0 1.778,-0.0508 0.8128,-0.0508 1.4224,-0.1016 1.676399,-0.1524 3.149599,-0.1524 3.9624,0 6.0452,1.27 2.0828,1.27 2.0828,3.6576 0,1.9812 -1.27,3.6576 -1.27,1.6764 -3.5052,2.7432 2.7432,4.6228 4.7244,7.2136 1.9812,2.5908 3.6068,3.7084 1.6256,1.0668 3.3528,1.0668 z m -18.694399,-11.684 q 0.3556,0.0508 1.2192,0.0508 2.895599,0 4.013199,-1.3208 1.1176,-1.3716 1.1176,-4.064 0,-5.2832 -3.8608,-5.2832 -1.066799,0 -1.574799,0.254 -0.508,0.254 -0.7112,0.9652 -0.2032,0.6604 -0.2032,2.1336 z"
           style="font-weight:bold;-inkscape-font-specification:'Cormorant SC Bold';stroke:#844e6b;stroke-opacity:1"
           id="path33418" />
        <path
           d="m -13.263803,169.91668 q 0.1016,-0.1524 0.3556,-0.1524 0.254,0 0.254,0.1524 -0.3556,3.6576 -0.3556,5.9944 0,0.4064 -0.1524,0.6096 -0.1524,0.1524 -0.6096,0.1524 h -19.1008 q -0.1016,0 -0.1016,-0.3048 0,-0.3048 0.1016,-0.3048 1.4732,0 2.1336,-0.254 0.6604,-0.254 0.9144,-0.9652 0.254,-0.762 0.254,-2.286 v -15.5448 q 0,-1.524 -0.254,-2.2352 -0.254,-0.7112 -0.9652,-0.9652 -0.6604,-0.3048 -2.0828,-0.3048 -0.1016,0 -0.1016,-0.3048 0,-0.3048 0.1016,-0.3048 h 18.1864 q 0.508,0 0.508,0.4064 l 0.0508,3.1496 q 0.0508,0.9652 0.0508,2.4384 0,0.1524 -0.3048,0.1524 -0.254,0 -0.3048,-0.1524 -0.9652,-2.2352 -2.9464,-3.7592 -1.9812,-1.5748 -4.0132,-1.5748 h -0.3556 q -1.1176,0 -1.6764,0.3048 -0.508,0.254 -0.7112,0.9652 -0.1524,0.7112 -0.1524,2.2352 v 6.858 q 3.8608,-0.0508 5.6896,-0.3048 1.8288,-0.254 2.0828,-0.254 0.3556,0 0.3556,1.1176 0,0.508 -0.1016,0.9144 -0.1016,0.4064 -0.254,0.4064 -0.3048,0 -2.1336,-0.254 -1.8288,-0.254 -5.6388,-0.3556 v 7.1628 q 0,1.524 0.1524,2.2352 0.2032,0.7112 0.7112,1.016 0.5588,0.254 1.6764,0.254 h 0.5588 q 2.3876,0 4.7244,-1.6764 2.3368,-1.7272 3.4544,-4.2672 z"
           style="font-weight:bold;-inkscape-font-specification:'Cormorant SC Bold';stroke:#844e6b;stroke-opacity:1"
           id="path33420" />
        <path
           d="m 11.288943,169.91668 q 0.1016,-0.1524 0.3556,-0.1524 0.254,0 0.254,0.1524 -0.3556,3.6576 -0.3556,5.9944 0,0.4064 -0.1524,0.6096 -0.1524,0.1524 -0.6096,0.1524 H -8.3198568 q -0.1016,0 -0.1016,-0.3048 0,-0.3048 0.1016,-0.3048 1.4731999,0 2.1335999,-0.254 0.6604,-0.254 0.9144,-0.9652 0.254,-0.762 0.254,-2.286 v -15.5448 q 0,-1.524 -0.254,-2.2352 -0.254,-0.7112 -0.9652,-0.9652 -0.6604,-0.3048 -2.0827999,-0.3048 -0.1016,0 -0.1016,-0.3048 0,-0.3048 0.1016,-0.3048 H 9.8665429 q 0.5080001,0 0.5080001,0.4064 l 0.0508,3.1496 q 0.0508,0.9652 0.0508,2.4384 0,0.1524 -0.3048,0.1524 -0.2540001,0 -0.3048001,-0.1524 -0.9652,-2.2352 -2.9464,-3.7592 -1.9811999,-1.5748 -4.0131999,-1.5748 h -0.3556 q -1.1176,0 -1.67639997,0.3048 -0.50799999,0.254 -0.71119999,0.9652 -0.1524,0.7112 -0.1524,2.2352 v 6.858 q 3.86079996,-0.0508 5.68959996,-0.3048 1.8287999,-0.254 2.0827999,-0.254 0.3556,0 0.3556,1.1176 0,0.508 -0.1016,0.9144 -0.1016,0.4064 -0.254,0.4064 -0.3048,0 -2.1335999,-0.254 -1.8288,-0.254 -5.63879996,-0.3556 v 7.1628 q 0,1.524 0.1524,2.2352 0.2032,0.7112 0.71119999,1.016 0.55879997,0.254 1.67639997,0.254 h 0.5588 q 2.3876,0 4.7243999,-1.6764 2.3368001,-1.7272 3.4544001,-4.2672 z"
           style="font-weight:bold;-inkscape-font-specification:'Cormorant SC Bold';stroke:#844e6b;stroke-opacity:1"
           id="path33422" />
      </g>
      <g
         aria-label="Paint"
         id="text1741-3"
         style="font-size:50.8px;font-family:'Cormorant SC';-inkscape-font-specification:'Cormorant SC';display:inline;fill:#5cff77;stroke:#008616;stroke-width:1.454;stroke-linecap:round;stroke-linejoin:round;stroke-opacity:1">
        <path
           d="m 56.185029,64.180848 q 0,1.6256 0.3556,2.3876 0.4064,0.7112 1.4732,1.016 1.1176,0.3048 3.4544,0.3048 0.1524,0 0.1524,0.3048 0,0.3048 -0.1524,0.3048 -2.0828,0 -3.2512,-0.0508 l -4.4196,-0.0508 -3.6576,0.0508 q -0.9652,0.0508 -2.6416,0.0508 -0.1524,0 -0.1524,-0.3048 0,-0.3048 0.1524,-0.3048 1.7272,0 2.4892,-0.254 0.762,-0.254 1.016,-0.9652 0.3048,-0.7112 0.3048,-2.286 v -23.5204 q 0,-1.524 -0.3048,-2.2352 -0.254,-0.7112 -1.0668,-0.9652 -0.762,-0.3048 -2.4384,-0.3048 -0.1524,0 -0.1524,-0.3048 0,-0.3048 0.1524,-0.3048 l 2.6416,0.0508 q 2.2352,0.1016 3.6068,0.1016 1.1684,0 2.8448,-0.1524 0.6096,-0.0508 1.6256,-0.1016 1.0668,-0.0508 2.4892,-0.0508 5.0292,0 7.9248,2.1336 2.9464,2.1336 2.9464,6.5532 0,3.2004 -1.6764,5.4356 -1.6256,2.2352 -4.2164,3.3528 -2.54,1.1176 -5.2324,1.1176 -1.4224,0 -2.3876,-0.254 -0.1524,0 -0.1524,-0.254 0,-0.1524 0.0508,-0.3048 0.1016,-0.1524 0.2032,-0.1016 0.8128,0.2032 1.778,0.2032 2.6416,0 4.4704,-2.1844 1.8288,-2.1844 1.8288,-6.2484 0,-4.0132 -1.8796,-6.1976 -1.8796,-2.2352 -5.1816,-2.2352 -1.2192,0 -1.8796,0.254 -0.6096,0.254 -0.8636,0.9652 -0.254,0.6604 -0.254,2.1336 z"
           style="font-weight:600;-inkscape-font-specification:'Cormorant SC Semi-Bold';stroke:#008616;stroke-opacity:1"
           id="path33425" />
        <path
           d="m 98.907761,67.889248 q 0.2032,0 0.2032,0.3048 0,0.3048 -0.2032,0.3048 -1.016,0 -3.1496,-0.1016 -2.1336,-0.1016 -3.048,-0.1016 -0.8128,0 -2.54,0.1016 -1.6256,0.1016 -2.286,0.1016 -0.2032,0 -0.2032,-0.3048 0,-0.3048 0.2032,-0.3048 1.2192,0 1.7272,-0.3048 0.5588,-0.3048 0.5588,-0.9652 0,-0.7112 -0.762,-2.3876 l -3.2004,-6.858 h -6.2992 l -2.031999,4.8768 q -0.8636,2.1336 -0.8636,3.2512 0,1.27 0.8636,1.8288 0.9144,0.5588 2.743199,0.5588 0.254,0 0.254,0.3048 0,0.3048 -0.254,0.3048 -0.7112,0 -2.031999,-0.1016 -1.4224,-0.1016 -2.6416,-0.1016 -1.27,0 -2.9972,0.1016 -1.524,0.1016 -2.4892,0.1016 -0.254,0 -0.254,-0.3048 0,-0.3048 0.254,-0.3048 1.5748,0 2.54,-0.4572 0.9652,-0.4572 1.778,-1.6764 0.8128,-1.27 1.9304,-3.9624 l 7.518399,-17.8308 q 0.1016,-0.2032 0.3048,-0.2032 0.2032,0 0.254,0.2032 l 8.1788,17.5768 q 1.27,2.7432 2.0828,4.064 0.8636,1.3208 1.6764,1.8288 0.8636,0.4572 2.1844,0.4572 z m -18.542,-11.684 h 5.2832 l -2.794,-5.9944 z"
           style="font-weight:600;-inkscape-font-specification:'Cormorant SC Semi-Bold';stroke:#008616;stroke-opacity:1"
           id="path33427" />
        <path
           d="m 108.76292,64.384048 q 0,1.524 0.254,2.286 0.254,0.7112 0.9652,0.9652 0.7112,0.254 2.2352,0.254 0.1016,0 0.1016,0.3048 0,0.3048 -0.1016,0.3048 -1.524,0 -2.3876,-0.0508 l -3.3528,-0.0508 -3.1496,0.0508 q -0.9144,0.0508 -2.4892,0.0508 -0.1016,0 -0.1016,-0.3048 0,-0.3048 0.1016,-0.3048 1.5748,0 2.286,-0.254 0.7112,-0.254 0.9652,-0.9652 0.254,-0.762 0.254,-2.286 v -15.5448 q 0,-1.524 -0.254,-2.2352 -0.254,-0.7112 -1.016,-0.9652 -0.7112,-0.3048 -2.2352,-0.3048 -0.1016,0 -0.1016,-0.3048 0,-0.3048 0.1016,-0.3048 l 2.4892,0.0508 q 1.9304,0.1016 3.1496,0.1016 1.3716,0 3.4036,-0.1016 l 2.3368,-0.0508 q 0.1016,0 0.1016,0.3048 0,0.3048 -0.1016,0.3048 -1.4732,0 -2.2352,0.3048 -0.7112,0.3048 -0.9652,1.0668 -0.254,0.7112 -0.254,2.2352 z"
           style="font-weight:600;-inkscape-font-specification:'Cormorant SC Semi-Bold';stroke:#008616;stroke-opacity:1"
           id="path33429" />
        <path
           d="m 142.03688,44.724448 q 0.1524,0 0.1524,0.3048 0,0.3048 -0.1524,0.3048 -1.9812,0 -2.8956,1.3716 -0.9144,1.3208 -0.9144,4.2164 v 18.1356 q 0,0.1016 -0.254,0.1524 -0.254,0.0508 -0.3556,-0.0508 l -17.526,-20.2692 q -0.1016,-0.1016 -0.1016,-0.1016 v 13.5636 q 0,2.8956 0.8636,4.2164 0.9144,1.3208 2.8448,1.3208 0.1016,0 0.1016,0.3048 0,0.3048 -0.1016,0.3048 -1.2192,0 -1.8796,-0.0508 l -2.286,-0.0508 -2.3368,0.0508 q -0.7112,0.0508 -1.9812,0.0508 -0.1016,0 -0.1016,-0.3048 0,-0.3048 0.1016,-0.3048 1.9812,0 2.8448,-1.3208 0.9144,-1.3208 0.9144,-4.2164 v -14.6812 q -1.27,-1.27 -2.2352,-1.778 -0.9144,-0.5588 -1.8288,-0.5588 -0.1016,0 -0.1016,-0.3048 0,-0.3048 0.1016,-0.3048 l 2.8448,0.0508 q 0.4572,0 1.1176,0 0.7112,-0.0508 2.8956,-0.0508 0.4064,0 0.7112,0.254 0.3048,0.254 0.8128,1.016 l 1.0668,1.3716 12.8524,14.8336 v -11.2776 q 0,-2.9464 -0.8636,-4.2672 -0.8636,-1.3208 -2.794,-1.3208 -0.1524,0 -0.1524,-0.3048 0,-0.3048 0.1524,-0.3048 l 1.8796,0.0508 q 1.4224,0.1016 2.286,0.1016 0.8636,0 2.3876,-0.1016 z"
           style="font-weight:600;-inkscape-font-specification:'Cormorant SC Semi-Bold';stroke:#008616;stroke-opacity:1"
           id="path33431" />
        <path
           d="m 150.97768,45.638848 q -4.5212,0 -6.2484,5.9944 -0.0508,0.1524 -0.3048,0.1524 -0.254,0 -0.254,-0.1524 0.2032,-1.5748 0.4064,-4.1148 0.254,-2.5908 0.254,-3.9116 0,-0.254 0.254,-0.254 0.3048,0 0.3048,0.254 0,0.6604 0.762,0.8636 0.762,0.1524 1.9304,0.1524 4.3688,0.1016 7.6708,0.1016 l 4.4196,-0.0508 q 0.8636,-0.0508 2.3368,-0.0508 1.9304,0 2.8956,-0.2032 0.9652,-0.254 1.2192,-1.016 0.0508,-0.1524 0.3048,-0.1524 0.3048,0 0.3048,0.1524 0,0.3048 -0.1016,1.524 -0.0508,1.27 -0.1524,3.2004 -0.1016,1.8796 -0.1524,3.5052 0,0.1524 -0.3048,0.1524 -0.3048,0 -0.3048,-0.1524 -0.254,-2.7432 -1.8288,-4.3688 -1.524,-1.6256 -3.81,-1.6256 -1.524,0 -2.0828,0.6604 -0.508,0.6604 -0.508,2.54 v 15.5448 q 0,1.524 0.254,2.286 0.3048,0.7112 1.1176,0.9652 0.8128,0.254 2.5908,0.254 0.1524,0 0.1524,0.3048 0,0.3048 -0.1524,0.3048 -1.6256,0 -2.5908,-0.0508 l -3.7084,-0.0508 -3.556,0.0508 q -0.9652,0.0508 -2.6924,0.0508 -0.1016,0 -0.1016,-0.3048 0,-0.3048 0.1016,-0.3048 1.778,0 2.5908,-0.254 0.8636,-0.254 1.1176,-0.9652 0.3048,-0.762 0.3048,-2.286 v -15.6464 q 0,-1.3716 -0.1524,-1.9812 -0.1524,-0.6096 -0.6604,-0.8636 -0.508,-0.254 -1.6256,-0.254 z"
           style="font-weight:600;-inkscape-font-specification:'Cormorant SC Semi-Bold';stroke:#008616;stroke-opacity:1"
           id="path33433" />
      </g>
      <g
         aria-label="Pixel 
Art"
         transform="rotate(18.651495)"
         id="text1741-8"
         style="font-size:42.3333px;font-family:'Cormorant SC';-inkscape-font-specification:'Cormorant SC';display:inline;fill:#5cc2ff;fill-opacity:0.99723;stroke:#4d6f84;stroke-width:1.454;stroke-linecap:round;stroke-linejoin:round;stroke-opacity:1"
         inkscape:label="text1741-8">
        <path
           d="m 228.9228,79.156495 q 0,1.6256 0.3556,2.3876 0.4064,0.7112 1.4732,1.016 1.1176,0.3048 3.4544,0.3048 0.1524,0 0.1524,0.3048 0,0.3048 -0.1524,0.3048 -2.0828,0 -3.2512,-0.0508 l -4.4196,-0.0508 -3.6576,0.0508 q -0.9652,0.0508 -2.6416,0.0508 -0.1524,0 -0.1524,-0.3048 0,-0.3048 0.1524,-0.3048 1.7272,0 2.4892,-0.254 0.762,-0.254 1.016,-0.9652 0.3048,-0.7112 0.3048,-2.286 v -23.5204 q 0,-1.524 -0.3048,-2.2352 -0.254,-0.7112 -1.0668,-0.9652 -0.762,-0.3048 -2.4384,-0.3048 -0.1524,0 -0.1524,-0.3048 0,-0.3048 0.1524,-0.3048 l 2.6416,0.0508 q 2.2352,0.1016 3.6068,0.1016 1.1684,0 2.8448,-0.1524 0.6096,-0.0508 1.6256,-0.1016 1.0668,-0.0508 2.4892,-0.0508 5.0292,0 7.9248,2.1336 2.9464,2.1336 2.9464,6.5532 0,3.2004 -1.6764,5.4356 -1.6256,2.2352 -4.2164,3.3528 -2.54,1.1176 -5.2324,1.1176 -1.4224,0 -2.3876,-0.254 -0.1524,0 -0.1524,-0.254 0,-0.1524 0.0508,-0.3048 0.1016,-0.1524 0.2032,-0.1016 0.8128,0.2032 1.778,0.2032 2.6416,0 4.4704,-2.1844 1.8288,-2.1844 1.8288,-6.2484 0,-4.0132 -1.8796,-6.1976 -1.8796,-2.2352 -5.1816,-2.2352 -1.2192,0 -1.8796,0.254 -0.6096,0.254 -0.8636,0.9652 -0.254,0.6604 -0.254,2.1336 z"
           style="font-weight:600;font-size:50.8px;-inkscape-font-specification:'Cormorant SC Semi-Bold';stroke:#4d6f84;stroke-opacity:1"
           id="path33436" />
        <path
           d="m 256.15156,79.359695 q 0,1.524 0.254,2.286 0.254,0.7112 0.9652,0.9652 0.7112,0.254 2.2352,0.254 0.1016,0 0.1016,0.3048 0,0.3048 -0.1016,0.3048 -1.524,0 -2.3876,-0.0508 l -3.3528,-0.0508 -3.1496,0.0508 q -0.9144,0.0508 -2.4892,0.0508 -0.1016,0 -0.1016,-0.3048 0,-0.3048 0.1016,-0.3048 1.5748,0 2.286,-0.254 0.7112,-0.254 0.9652,-0.9652 0.254,-0.762 0.254,-2.286 v -15.5448 q 0,-1.524 -0.254,-2.2352 -0.254,-0.7112 -1.016,-0.9652 -0.7112,-0.3048 -2.2352,-0.3048 -0.1016,0 -0.1016,-0.3048 0,-0.3048 0.1016,-0.3048 l 2.4892,0.0508 q 1.9304,0.1016 3.1496,0.1016 1.3716,0 3.4036,-0.1016 l 2.3368,-0.0508 q 0.1016,0 0.1016,0.3048 0,0.3048 -0.1016,0.3048 -1.4732,0 -2.2352,0.3048 -0.7112,0.3048 -0.9652,1.0668 -0.254,0.7112 -0.254,2.2352 z"
           style="font-weight:600;font-size:50.8px;-inkscape-font-specification:'Cormorant SC Semi-Bold';stroke:#4d6f84;stroke-opacity:1"
           id="path33438" />
        <path
           d="m 288.10472,82.864895 q 0.1016,0 0.1016,0.3048 0,0.3048 -0.1016,0.3048 l -5.334,-0.1016 -3.2004,0.0508 q -0.7112,0.0508 -1.9304,0.0508 -0.1524,0 -0.1524,-0.3048 0,-0.3048 0.1524,-0.3048 0.9652,0 1.4224,-0.1016 0.4572,-0.1524 0.4572,-0.508 0,-0.3556 -0.7112,-1.3716 l -4.9276,-7.4168 -3.6576,5.2832 q -0.9652,1.4224 -0.9652,2.4384 0,1.6764 2.4384,1.6764 0.1016,0 0.1016,0.3048 0,0.3048 -0.1016,0.3048 -1.4732,0 -2.286,-0.0508 l -3.2512,-0.0508 -1.9812,0.0508 q -0.5588,0.0508 -1.8288,0.0508 -0.1016,0 -0.1016,-0.3048 0,-0.3048 0.1016,-0.3048 1.4224,0 3.048,-1.016 1.6764,-1.0668 3.4036,-3.4036 l 4.3688,-5.9944 -5.6896,-8.5344 q -1.27,-1.9304 -2.6416,-2.7432 -1.3716,-0.8636 -2.54,-0.8636 -0.1016,0 -0.1016,-0.3048 0,-0.3048 0.1016,-0.3048 l 1.5748,0.0508 q 1.1176,0.1016 1.5748,0.1016 1.4732,0 4.4196,-0.1016 l 2.8956,-0.0508 q 0.1016,0 0.1016,0.3048 0,0.3048 -0.1016,0.3048 -1.016,0 -1.4732,0.1524 -0.4064,0.1016 -0.4064,0.4572 0,0.4572 0.6604,1.4224 l 4.5212,6.7056 3.048,-4.6228 q 1.0668,-1.6256 1.0668,-2.6416 0,-1.4732 -1.9812,-1.4732 -0.1524,0 -0.1524,-0.3048 0,-0.3048 0.1524,-0.3048 l 2.032,0.0508 q 1.7272,0.1016 3.048,0.1016 0.8636,0 1.9812,-0.1016 l 1.778,-0.0508 q 0.1016,0 0.1016,0.3048 0,0.3048 -0.1016,0.3048 -3.3528,0 -6.5532,4.4196 l -3.7592,5.2832 6.1976,9.2456 q 1.27,1.9304 2.6416,2.794 1.3716,0.8128 2.54,0.8128 z"
           style="font-weight:600;font-size:50.8px;-inkscape-font-specification:'Cormorant SC Semi-Bold';stroke:#4d6f84;stroke-opacity:1"
           id="path33440" />
        <path
           d="m 309.49148,76.718095 q 0.0508,-0.1524 0.3048,-0.1524 0.254,0 0.254,0.1524 -0.3556,3.6576 -0.3556,5.9944 0,0.4064 -0.1524,0.6096 -0.1524,0.1524 -0.6096,0.1524 h -18.8976 q -0.1016,0 -0.1016,-0.3048 0,-0.3048 0.1016,-0.3048 1.524,0 2.2352,-0.254 0.7112,-0.254 0.9652,-0.9652 0.254,-0.762 0.254,-2.286 v -15.5448 q 0,-1.524 -0.254,-2.2352 -0.254,-0.7112 -0.9652,-0.9652 -0.7112,-0.3048 -2.2352,-0.3048 -0.1016,0 -0.1016,-0.3048 0,-0.3048 0.1016,-0.3048 h 17.9832 q 0.508,0 0.508,0.4064 l 0.0508,3.1496 q 0.0508,0.9652 0.0508,2.4384 0,0.1524 -0.3048,0.1524 -0.254,0 -0.3048,-0.1524 -0.6604,-2.286 -2.4892,-3.81 -1.8288,-1.524 -3.9116,-1.524 h -0.7112 q -1.3208,0 -1.9812,0.3048 -0.6096,0.254 -0.8636,0.9652 -0.2032,0.7112 -0.2032,2.2352 v 6.9088 q 4.2164,-0.1016 6.0452,-0.3048 1.8288,-0.254 2.0828,-0.254 0.1524,0 0.2032,0.3556 0.1016,0.3556 0.1016,0.762 0,0.4572 -0.1016,0.8636 -0.0508,0.4064 -0.2032,0.4064 -0.254,0 -2.0828,-0.254 -1.8288,-0.3048 -6.0452,-0.4064 v 7.2136 q 0,1.4732 0.2032,2.2352 0.254,0.7112 0.8636,1.016 0.6604,0.254 1.9812,0.254 h 1.1684 q 2.286,0 4.3688,-1.6764 2.0828,-1.6764 3.048,-4.2672 z"
           style="font-weight:600;font-size:50.8px;-inkscape-font-specification:'Cormorant SC Semi-Bold';stroke:#4d6f84;stroke-opacity:1"
           id="path33442" />
        <path
           d="m 321.27702,79.156495 q 0,1.3716 0.254,2.0828 0.3048,0.7112 1.016,1.016 0.762,0.254 2.2352,0.254 h 1.524 q 2.794,0 4.9276,-1.8288 2.1336,-1.8288 3.048,-4.9276 0.0508,-0.1016 0.3048,-0.0508 0.3048,0 0.3048,0.1016 -0.3556,2.6416 -0.3556,6.9088 0,0.4064 -0.2032,0.6096 -0.1524,0.1524 -0.5588,0.1524 h -20.1676 q -0.1016,0 -0.1016,-0.3048 0,-0.3048 0.1016,-0.3048 1.4224,0 2.0828,-0.254 0.6604,-0.254 0.8636,-0.9652 0.254,-0.762 0.254,-2.286 v -15.5448 q 0,-1.524 -0.254,-2.2352 -0.2032,-0.7112 -0.8636,-0.9652 -0.6604,-0.3048 -2.0828,-0.3048 -0.1016,0 -0.1016,-0.3048 0,-0.3048 0.1016,-0.3048 l 2.4384,0.0508 q 2.032,0.1016 3.1496,0.1016 1.3208,0 3.3528,-0.1016 l 2.286,-0.0508 q 0.1524,0 0.1524,0.3048 0,0.3048 -0.1524,0.3048 -1.5748,0 -2.3368,0.3048 -0.7112,0.254 -0.9652,1.016 -0.254,0.7112 -0.254,2.2352 z"
           style="font-weight:600;font-size:50.8px;-inkscape-font-specification:'Cormorant SC Semi-Bold';stroke:#4d6f84;stroke-opacity:1"
           id="path33444" />
        <path
           d="m 248.45538,138.94802 q 0.21166,0 0.21166,0.254 0,0.254 -0.21166,0.254 -0.80434,0 -2.58233,-0.0847 -1.778,-0.0847 -2.58234,-0.0847 -1.05833,0 -2.49766,0.0847 -1.43933,0.0847 -2.24367,0.0847 -0.16933,0 -0.16933,-0.254 0,-0.254 0.16933,-0.254 1.22767,0 1.778,-0.254 0.59267,-0.29634 0.59267,-0.93133 0,-0.635 -0.71967,-2.159 l -4.57199,-9.271 h -7.66233 l -3.25967,7.32367 q -0.55033,1.26999 -0.55033,2.28599 0,1.48167 1.05833,2.24367 1.05834,0.762 2.96334,0.762 0.21166,0 0.21166,0.254 0,0.254 -0.21166,0.254 -0.762,0 -2.20134,-0.0847 -1.60866,-0.0847 -2.79399,-0.0847 -1.143,0 -2.667,0.0847 -1.35467,0.0847 -2.24367,0.0847 -0.21166,0 -0.21166,-0.254 0,-0.254 0.21166,-0.254 1.18534,0 1.98967,-0.46567 0.80433,-0.46566 1.56633,-1.651 0.762,-1.22766 1.82033,-3.59833 l 9.10166,-20.48932 q 0.0847,-0.127 0.381,-0.127 0.29633,0 0.33867,0.127 l 10.37166,20.91266 q 1.48166,3.04799 2.45533,4.19099 1.016,1.10067 2.159,1.10067 z m -20.02365,-13.67366 h 6.68866 l -3.51367,-7.11199 z"
           style="font-weight:600;-inkscape-font-specification:'Cormorant SC Semi-Bold';stroke:#4d6f84;stroke-opacity:1"
           id="path33446" />
        <path
           d="m 272.0773,138.94802 q 0.127,0 0.127,0.254 0,0.254 -0.127,0.254 h -6.26533 q -0.67733,0 -2.45533,-2.54 -1.73567,-2.58233 -4.064,-6.985 -0.889,0.127 -1.82033,0.127 -0.67733,0 -1.016,-0.0423 v 6.01133 q 0,1.27 0.16933,1.905 0.21167,0.59266 0.762,0.80433 0.59267,0.21167 1.86267,0.21167 0.0847,0 0.0847,0.254 0,0.254 -0.0847,0.254 -1.22767,0 -1.94734,-0.0423 l -2.79399,-0.0423 -2.62467,0.0423 q -0.762,0.0423 -2.07433,0.0423 -0.0847,0 -0.0847,-0.254 0,-0.254 0.0847,-0.254 1.27,0 1.86267,-0.21167 0.59266,-0.21167 0.80433,-0.80433 0.21166,-0.635 0.21166,-1.905 v -12.95399 q 0,-1.27 -0.21166,-1.86267 -0.21167,-0.59266 -0.80433,-0.80433 -0.59267,-0.254 -1.82034,-0.254 -0.0847,0 -0.0847,-0.254 0,-0.254 0.0847,-0.254 l 2.07434,0.0423 q 1.60866,0.0847 2.58233,0.0847 0.80433,0 1.48166,-0.0423 0.67734,-0.0423 1.18533,-0.0847 1.397,-0.127 2.54,-0.127 3.13267,0 4.74133,1.05833 1.651,1.05834 1.651,3.048 0,1.651 -1.016,3.09033 -1.016,1.43934 -2.794,2.286 2.286,3.85233 3.937,6.01133 1.651,2.11667 3.00567,3.048 1.35466,0.889 2.83633,0.889 z m -15.62099,-9.69433 q 0.381,0.0423 1.31233,0.0423 2.49767,0 3.47133,-1.143 0.97367,-1.143 0.97367,-3.38667 0,-4.48733 -3.51367,-4.48733 -1.397,0 -1.82033,0.59267 -0.42333,0.55033 -0.42333,2.286 z"
           style="font-weight:600;-inkscape-font-specification:'Cormorant SC Semi-Bold';stroke:#4d6f84;stroke-opacity:1"
           id="path33448" />
        <path
           d="m 276.77622,120.40603 q -3.76766,0 -5.20699,4.99533 -0.0423,0.127 -0.254,0.127 -0.21167,0 -0.21167,-0.127 0.16933,-1.31233 0.33867,-3.429 0.21166,-2.15899 0.21166,-3.25966 0,-0.21167 0.21167,-0.21167 0.254,0 0.254,0.21167 0,0.55033 0.635,0.71967 0.635,0.127 1.60866,0.127 3.64067,0.0847 6.39233,0.0847 l 3.683,-0.0423 q 0.71967,-0.0423 1.94733,-0.0423 1.60867,0 2.413,-0.16934 0.80433,-0.21166 1.016,-0.84666 0.0423,-0.127 0.254,-0.127 0.254,0 0.254,0.127 0,0.254 -0.0847,1.27 -0.0423,1.05833 -0.127,2.66699 -0.0847,1.56634 -0.127,2.921 0,0.127 -0.254,0.127 -0.254,0 -0.254,-0.127 -0.21166,-2.286 -1.524,-3.64066 -1.27,-1.35467 -3.17499,-1.35467 -1.27,0 -1.73567,0.55033 -0.42333,0.55034 -0.42333,2.11667 v 12.95399 q 0,1.27 0.21166,1.905 0.254,0.59266 0.93134,0.80433 0.67733,0.21167 2.159,0.21167 0.127,0 0.127,0.254 0,0.254 -0.127,0.254 -1.35467,0 -2.159,-0.0423 l -3.09033,-0.0423 -2.96334,0.0423 q -0.80433,0.0423 -2.24366,0.0423 -0.0847,0 -0.0847,-0.254 0,-0.254 0.0847,-0.254 1.48167,0 2.159,-0.21167 0.71966,-0.21167 0.93133,-0.80433 0.254,-0.635 0.254,-1.905 v -13.03866 q 0,-1.143 -0.127,-1.651 -0.127,-0.508 -0.55033,-0.71966 -0.42334,-0.21167 -1.35467,-0.21167 z"
           style="font-weight:600;-inkscape-font-specification:'Cormorant SC Semi-Bold';stroke:#4d6f84;stroke-opacity:1"
           id="path33450" />
      </g>
    </g>
    <g
       id="g33355"
       inkscape:label="key">
      <path
         id="path8509-9-0-8"
         style="display:inline;fill:#c8b9e5;stroke:#583996;stroke-width:1.154;stroke-linecap:round;stroke-linejoin:round;stroke-dasharray:1.154, 2.308;stroke-opacity:1"
         inkscape:transform-center-x="56.566034"
         inkscape:transform-center-y="32.898933"
         d="m 134.23389,275.53864 a 4.0934291,4.0934291 0 0 1 -4.09343,4.09342 4.0934291,4.0934291 0 0 1 -4.09343,-4.09342 4.0934291,4.0934291 0 0 1 4.09343,-4.09343 4.0934291,4.0934291 0 0 1 4.09343,4.09343 z" />
      <path
         id="path8509-1-2"
         style="fill:#fdcba9;stroke:#6f2f02;stroke-width:1.154;stroke-linecap:round;stroke-linejoin:round;stroke-dasharray:1.154, 2.308;stroke-opacity:1"
         d="m 133.89467,238.71704 a 4.0934291,4.0934291 0 0 1 -4.09343,4.09343 4.0934291,4.0934291 0 0 1 -4.09343,-4.09343 4.0934291,4.0934291 0 0 1 4.09343,-4.09343 4.0934291,4.0934291 0 0 1 4.09343,4.09343 z" />
      <g
         aria-label="Gimp"
         transform="matrix(0.26458333,0,0,0.26458333,124.96583,80.345606)"
         id="text16995-3"
         style="font-size:160px;font-family:'Cormorant SC';-inkscape-font-specification:'Cormorant SC';white-space:pre;shape-inside:url(#rect16997-0);display:inline;fill:#fdcba9;stroke:#b7642c;stroke-width:2.47181;stroke-linecap:round;stroke-linejoin:round">
        <path
           d="m 123.65742,648.49702 q -17.44,0 -30.399998,-6.72 -12.96,-6.72 -19.84,-18.24 -6.72,-11.52 -6.72,-25.76 0,-15.52 7.84,-27.52 8,-12 21.76,-18.72 13.919998,-6.72 31.359998,-6.72 7.84,0 14.88,1.6 7.2,1.44 11.68,4.16 1.28,0.8 1.44,1.44 0.32,0.48 0.48,2.24 l 1.92,17.92 q 0,0.48 -0.96,0.64 -0.8,0 -0.96,-0.48 -3.52,-11.52 -12.8,-17.76 -9.12,-6.24 -22.56,-6.24 -20.16,0 -31.199998,11.68 -11.04,11.68 -11.04,32 0,15.52 6.24,27.84 6.4,12.16 17.599998,19.04 11.2,6.88 25.12,6.88 8.16,0 12.64,-1.44 4.48,-1.44 6.56,-5.6 2.08,-4.16 2.08,-12.32 0,-8.32 -1.12,-11.52 -0.96,-3.36 -4.64,-4.48 -3.52,-1.12 -12.32,-1.12 -0.96,0 -0.96,-1.28 0,-0.48 0.16,-0.8 0.32,-0.48 0.64,-0.48 12.48,0.8 20.16,0.8 7.52,0 15.68,-0.48 0.32,0 0.48,0.48 0.32,0.32 0.32,0.64 0,1.12 -0.8,1.12 -3.84,-0.16 -5.44,1.12 -1.6,1.12 -2.08,4.8 -0.48,3.68 -0.48,12.8 0,7.2 0.48,10.24 0.64,3.04 0.64,3.84 0,0.96 -0.32,1.28 -0.32,0.32 -1.44,0.64 -19.36,4.48 -34.08,4.48 z"
           id="path33516" />
        <path
           d="m 201.57723,633.61702 q 0,4.96 0.8,7.2 0.96,2.24 3.36,3.04 2.4,0.8 7.84,0.8 0.32,0 0.32,0.96 0,0.96 -0.32,0.96 -4.48,0 -7.04,-0.16 l -10.08,-0.16 -9.44,0.16 q -2.72,0.16 -7.36,0.16 -0.32,0 -0.32,-0.96 0,-0.96 0.32,-0.96 5.44,0 7.84,-0.8 2.4,-0.8 3.2,-3.04 0.96,-2.24 0.96,-7.2 v -48.96 q 0,-4.8 -0.96,-7.04 -0.8,-2.24 -3.36,-3.04 -2.4,-0.96 -7.68,-0.96 -0.32,0 -0.32,-0.96 0,-0.96 0.32,-0.96 l 7.36,0.16 q 5.76,0.32 9.44,0.32 4.16,0 10.24,-0.32 l 6.88,-0.16 q 0.32,0 0.32,0.96 0,0.96 -0.32,0.96 -5.12,0 -7.68,0.96 -2.56,0.96 -3.52,3.36 -0.8,2.24 -0.8,7.04 z"
           id="path33518" />
        <path
           d="m 325.41711,644.65702 q 0.32,0 0.32,0.96 0,0.96 -0.32,0.96 -4.48,0 -7.04,-0.16 l -9.44,-0.16 -10.88,0.16 q -2.72,0.16 -7.52,0.16 -0.32,0 -0.32,-0.96 0,-0.96 0.32,-0.96 5.92,0 8.8,-0.8 2.88,-0.96 3.84,-3.2 0.96,-2.24 0.64,-7.04 l -1.92,-53.92 -27.52,65.76 q -0.32,0.64 -1.12,0.64 -0.96,0 -1.28,-0.64 l -30.56,-60.48 -0.32,-0.64 -1.44,44.8 q -0.16,8.48 2.24,12 2.4,3.52 8.16,3.52 0.48,0 0.48,0.96 0,0.96 -0.48,0.96 -3.36,0 -5.12,-0.16 l -7.04,-0.16 -6.72,0.16 q -2.08,0.16 -5.76,0.16 -0.32,0 -0.32,-0.96 0,-0.96 0.32,-0.96 5.92,0 8.32,-3.52 2.4,-3.52 2.72,-12 l 1.6,-49.6 q -4.64,-5.92 -11.36,-5.92 -0.48,0 -0.48,-0.96 0,-0.96 0.48,-0.96 l 8.8,0.16 7.68,-0.16 q 2.08,0 3.36,1.44 1.28,1.44 4,6.88 l 26.24,52.16 23.68,-56.48 q 0.64,-1.76 1.92,-2.88 1.44,-1.12 2.88,-1.12 l 8.48,0.16 10.72,-0.16 q 0.32,0 0.32,0.96 0,0.96 -0.32,0.96 -7.2,0 -10.08,2.24 -2.88,2.08 -2.56,8.48 l 1.92,49.28 q 0.32,4.96 1.12,7.2 0.8,2.24 3.04,3.04 2.4,0.8 7.52,0.8 z"
           id="path33520" />
        <path
           d="m 357.25707,632.97702 q 0,5.12 1.12,7.52 1.12,2.24 4.32,3.2 3.36,0.96 10.4,0.96 0.48,0 0.48,0.96 0,0.96 -0.48,0.96 -5.76,0 -8.8,-0.16 l -11.84,-0.16 -9.44,0.16 q -2.72,0.16 -7.36,0.16 -0.32,0 -0.32,-0.96 0,-0.96 0.32,-0.96 5.28,0 7.68,-0.8 2.4,-0.8 3.2,-3.04 0.96,-2.4 0.96,-7.2 v -48.96 q 0,-4.8 -0.96,-7.04 -0.8,-2.24 -3.36,-3.04 -2.4,-0.96 -7.52,-0.96 -0.32,0 -0.32,-0.96 0,-0.96 0.32,-0.96 l 7.2,0.16 q 6.08,0.32 9.44,0.32 2.72,0 5.12,-0.16 2.56,-0.16 4.32,-0.32 4.96,-0.48 9.28,-0.48 26.4,0 26.4,19.52 0,7.68 -4,12.96 -3.84,5.12 -9.92,7.68 -5.92,2.56 -12.32,2.56 -4.32,0 -7.04,-0.64 -0.32,0 -0.32,-0.8 0,-1.28 0.8,-1.28 2.4,0.48 4.96,0.48 7.04,0 11.84,-4.48 4.96,-4.64 4.96,-13.28 0,-10.08 -5.28,-15.2 -5.12,-5.28 -13.92,-5.28 -4,0 -6.08,0.64 -1.92,0.64 -2.88,3.04 -0.96,2.4 -0.96,7.84 z"
           id="path33522" />
      </g>
      <g
         aria-label="Adobe PS"
         transform="matrix(0.26458333,0,0,0.26458333,125.15033,117.99485)"
         id="text16995-3-0"
         style="font-size:160px;font-family:'Cormorant SC';-inkscape-font-specification:'Cormorant SC';white-space:pre;shape-inside:url(#rect16997-0-3);display:inline;fill:#c8b9e5;stroke:#552f9e;stroke-width:2.47181;stroke-linecap:round;stroke-linejoin:round">
        <path
           d="m 170.69742,644.65702 q 0.64,0 0.64,0.96 0,0.96 -0.64,0.96 -3.04,0 -9.44,-0.32 -6.4,-0.32 -9.28,-0.32 -3.52,0 -8.96,0.32 -5.12,0.32 -7.84,0.32 -0.64,0 -0.64,-0.96 0,-0.96 0.64,-0.96 5.92,0 8.64,-1.12 2.72,-1.12 2.72,-3.84 0,-2.24 -2.08,-6.88 l -18.4,-39.2 H 95.817422 l -13.76,32.64 q -2.24,5.44 -2.24,8.96 0,9.44 15.68,9.44 0.8,0 0.8,0.96 0,0.96 -0.8,0.96 -2.88,0 -8.32,-0.32 -6.08,-0.32 -10.56,-0.32 -4.16,0 -9.6,0.32 -4.8,0.32 -8,0.32 -0.8,0 -0.8,-0.96 0,-0.96 0.8,-0.96 4.48,0 7.52,-1.6 3.2,-1.76 5.92,-5.92 2.88,-4.32 6.24,-12.32 l 33.759998,-79.68 q 0.32,-0.48 1.12,-0.48 0.8,0 0.96,0.48 l 37.76,79.52 q 5.44,11.84 9.28,16 3.84,4 9.12,4 z m -73.439998,-54.4 h 27.199998 l -14.4,-30.4 z"
           id="path33525" />
        <path
           d="m 215.01737,647.21702 q -4.64,0 -10.08,-0.48 -1.92,-0.16 -4.8,-0.32 -2.88,-0.16 -6.56,-0.16 l -9.44,0.16 q -2.72,0.16 -7.36,0.16 -0.32,0 -0.32,-0.96 0,-0.96 0.32,-0.96 5.44,0 7.84,-0.8 2.56,-0.8 3.36,-3.04 0.96,-2.4 0.96,-7.2 v -48.96 q 0,-4.8 -0.96,-7.04 -0.8,-2.24 -3.36,-3.04 -2.4,-0.96 -7.68,-0.96 -0.32,0 -0.32,-0.96 0,-0.96 0.32,-0.96 l 7.2,0.16 q 6.08,0.32 9.44,0.32 4.96,0 9.92,-0.48 6.4,-0.32 9.6,-0.32 13.44,0 23.2,4.8 9.76,4.8 14.88,13.28 5.12,8.48 5.12,19.2 0,11.04 -5.28,19.84 -5.28,8.8 -14.72,13.76 -9.28,4.96 -21.28,4.96 z m -1.92,-2.24 q 14.88,0 23.2,-8.96 8.48,-8.96 8.48,-25.6 0,-16 -8.32,-26.4 -8.16,-10.4 -24.64,-10.4 -7.36,0 -10.4,2.4 -2.88,2.4 -2.88,8.96 v 46.88 q 0,7.2 2.88,10.24 3.04,2.88 11.68,2.88 z"
           id="path33527" />
        <path
           d="m 306.05719,648.49702 q -11.2,0 -20,-5.28 -8.64,-5.28 -13.44,-14.24 -4.8,-8.96 -4.8,-19.36 0,-12.48 6.4,-21.44 6.56,-9.12 16.48,-13.76 10.08,-4.64 20.48,-4.64 11.2,0 19.68,5.6 8.64,5.44 13.12,14.24 4.64,8.8 4.64,18.4 0,10.72 -5.76,20.16 -5.76,9.28 -15.52,14.88 -9.76,5.44 -21.28,5.44 z m 4.16,-3.36 q 12.48,0 19.84,-8.8 7.52,-8.8 7.52,-24.32 0,-10.72 -3.84,-19.52 -3.68,-8.8 -10.88,-14.08 -7.2,-5.28 -17.12,-5.28 -12.8,0 -19.84,8.64 -7.04,8.48 -7.04,23.84 0,11.04 3.68,20 3.84,8.96 10.88,14.24 7.2,5.28 16.8,5.28 z"
           id="path33529" />
        <path
           d="m 403.97714,605.13702 q 11.52,0.8 17.76,5.44 6.24,4.64 6.24,13.28 0,10.4 -8.32,16.96 -8.32,6.4 -21.44,6.4 -4.16,0 -9.76,-0.48 -2.24,-0.16 -5.28,-0.32 -3.04,-0.16 -6.56,-0.16 l -9.28,0.16 q -2.72,0.16 -7.36,0.16 -0.32,0 -0.32,-0.96 0,-0.96 0.32,-0.96 5.44,0 7.84,-0.8 2.56,-0.8 3.36,-3.04 0.96,-2.4 0.96,-7.2 v -48.96 q 0,-4.8 -0.96,-7.04 -0.8,-2.24 -3.36,-3.04 -2.4,-0.96 -7.68,-0.96 -0.32,0 -0.32,-0.96 0,-0.96 0.32,-0.96 l 7.2,0.16 q 6.08,0.32 9.28,0.32 4.32,0 8.8,-0.48 1.6,-0.16 4.48,-0.32 3.04,-0.16 5.28,-0.16 11.52,0 17.92,4.16 6.4,4.16 6.4,11.68 0,6.24 -4.16,11.04 -4.16,4.64 -11.36,7.04 z m -12.96,-31.84 q -3.84,0 -5.76,0.96 -1.92,0.8 -2.72,3.36 -0.8,2.4 -0.8,7.36 v 20.16 q 2.72,0.16 7.68,0.16 10.56,0 15.2,-2.88 4.8,-3.04 4.8,-12 0,-8.96 -4.64,-12.96 -4.64,-4.16 -13.76,-4.16 z m 4.32,71.36 q 22.08,0 22.08,-17.12 0,-9.12 -6.72,-14.4 -6.72,-5.28 -20.64,-5.28 -5.6,0 -8.32,0.32 v 25.44 q 0,6.08 2.72,8.64 2.88,2.4 10.88,2.4 z"
           id="path33531" />
        <path
           d="m 499.97701,625.29702 q 0,-0.48 0.8,-0.48 0.96,0 0.96,0.48 -1.12,11.52 -1.12,18.88 0,1.28 -0.48,1.92 -0.48,0.48 -1.92,0.48 h -58.56 q -0.32,0 -0.32,-0.96 0,-0.96 0.32,-0.96 5.28,0 7.68,-0.8 2.4,-0.8 3.2,-3.04 0.96,-2.4 0.96,-7.2 v -48.96 q 0,-4.8 -0.96,-7.04 -0.8,-2.24 -3.2,-3.04 -2.4,-0.96 -7.68,-0.96 -0.32,0 -0.32,-0.96 0,-0.96 0.32,-0.96 h 55.68 q 1.6,0 1.6,1.28 l 0.16,9.92 q 0.16,3.04 0.16,7.68 0,0.48 -0.96,0.48 -0.96,0 -0.96,-0.48 -0.64,-7.36 -5.44,-12 -4.64,-4.8 -11.52,-4.8 h -4.48 q -5.6,0 -8.16,0.96 -2.56,0.8 -3.52,3.04 -0.96,2.24 -0.96,7.04 v 21.92 q 15.52,-0.16 21.12,-0.8 5.76,-0.8 6.56,-0.8 0.8,0 0.8,3.36 0,3.68 -0.8,3.68 -0.64,0 -6.4,-0.8 -5.76,-0.96 -21.28,-1.28 v 22.88 q 0,4.64 0.96,7.04 0.96,2.24 3.52,3.2 2.72,0.8 8.16,0.8 h 7.68 q 6.4,0 11.52,-5.12 5.12,-5.28 6.88,-13.6 z"
           id="path33533" />
        <path
           d="m 576.45669,632.97702 q 0,5.12 1.28,7.52 1.44,2.24 5.28,3.2 4,0.96 12.48,0.96 0.48,0 0.48,0.96 0,0.96 -0.48,0.96 -6.56,0 -10.24,-0.16 l -13.92,-0.16 -10.72,0.16 q -3.04,0.16 -8.16,0.16 -0.32,0 -0.32,-0.96 0,-0.96 0.32,-0.96 6.08,0 8.8,-0.8 2.88,-0.8 3.84,-3.04 0.96,-2.4 0.96,-7.2 v -74.08 q 0,-4.8 -0.96,-7.04 -0.96,-2.24 -3.84,-3.04 -2.72,-0.96 -8.8,-0.96 -0.32,0 -0.32,-0.96 0,-0.96 0.32,-0.96 l 8,0.16 q 6.72,0.32 10.72,0.32 4,0 8.96,-0.48 1.92,0 6.08,-0.16 4.16,-0.32 7.2,-0.32 14.72,0 23.52,6.56 8.96,6.56 8.96,20 0,10.56 -5.28,17.76 -5.12,7.2 -13.28,10.72 -8.16,3.52 -16.8,3.52 -4.64,0 -7.68,-0.8 -0.48,0 -0.48,-0.8 0,-0.48 0.16,-0.96 0.32,-0.48 0.64,-0.32 2.56,0.64 5.76,0.64 10.56,0 17.76,-6.88 7.36,-6.88 7.36,-19.84 0,-12.64 -6.88,-19.84 -6.88,-7.36 -17.6,-7.36 -5.76,0 -8.32,0.64 -2.56,0.64 -3.68,3.04 -1.12,2.24 -1.12,7.68 z"
           id="path33535" />
        <path
           d="m 655.81658,565.29702 q 0,6.24 3.04,10.88 3.04,4.64 7.36,7.84 4.32,3.04 12.16,7.84 8.32,4.96 12.96,8.32 4.64,3.36 7.84,8.64 3.36,5.12 3.36,12.32 0,7.68 -3.84,13.92 -3.84,6.24 -11.36,9.92 -7.36,3.52 -17.76,3.52 -12.32,0 -22.56,-5.6 -0.8,-0.48 -1.12,-1.12 -0.16,-0.64 -0.32,-1.92 l -2.08,-21.76 q -0.16,-0.64 0.64,-0.8 0.96,-0.16 1.12,0.48 2.56,11.52 9.44,19.84 7.04,8.32 18.56,8.32 8,0 13.44,-4.32 5.6,-4.48 5.6,-14.08 0,-7.2 -3.2,-12.48 -3.2,-5.28 -7.84,-8.64 -4.48,-3.52 -12.32,-8.16 -7.68,-4.64 -12.16,-8 -4.32,-3.36 -7.36,-8.48 -3.04,-5.12 -3.04,-12 0,-8 4.16,-13.6 4.32,-5.76 11.04,-8.48 6.88,-2.88 14.56,-2.88 9.44,0 18.72,3.84 2.4,0.8 2.4,2.72 l 1.12,18.4 q 0,0.64 -0.8,0.64 -0.8,0 -0.96,-0.64 -1.28,-8.32 -6.88,-15.36 -5.6,-7.2 -16.16,-7.2 -8.96,0 -13.44,5.28 -4.32,5.12 -4.32,12.8 z"
           id="path33537" />
      </g>
      <path
         id="path8509-9-8"
         style="fill:#b9e5c2;stroke:#235e2f;stroke-width:1.154;stroke-linecap:round;stroke-linejoin:round;stroke-dasharray:1.154, 2.308;stroke-opacity:1"
         d="m -67.896904,235.0493 a 4.0934291,4.0934291 0 0 1 -4.09343,4.09343 4.0934291,4.0934291 0 0 1 -4.093429,-4.09343 4.0934291,4.0934291 0 0 1 4.093429,-4.09343 4.0934291,4.0934291 0 0 1 4.09343,4.09343 z" />
      <path
         id="path8509-1"
         style="fill:#f4fda9;fill-opacity:0.99723;stroke:#6d7b00;stroke-width:1.154;stroke-linecap:round;stroke-linejoin:round;stroke-dasharray:1.154, 2.308;stroke-opacity:1"
         d="m -67.451973,276.87347 a 4.0934291,4.0934291 0 0 1 -4.09343,4.09343 4.0934291,4.0934291 0 0 1 -4.093429,-4.09343 4.0934291,4.0934291 0 0 1 4.093429,-4.09342 4.0934291,4.0934291 0 0 1 4.09343,4.09342 z" />
      <g
         aria-label="Krita"
         transform="matrix(0.26458333,0,0,0.26458333,-76.825745,118.50204)"
         id="text16995"
         style="font-size:160px;font-family:'Cormorant SC';-inkscape-font-specification:'Cormorant SC';white-space:pre;shape-inside:url(#rect16997);display:inline;fill:#f4fda9;stroke:#7a8331;stroke-width:2.47181;stroke-linecap:round;stroke-linejoin:round">
        <path
           d="m 161.41742,644.65702 q 0.48,0 0.48,0.96 0,0.96 -0.48,0.96 h -17.92 q -1.28,0 -4.64,0 -3.2,0.16 -9.12,-8 -5.92,-8.32 -11.36,-15.2 l -24.479998,-30.88 -5.28,5.12 v 36 q 0,4.8 0.96,7.2 0.96,2.24 3.68,3.04 2.88,0.8 8.959998,0.8 0.48,0 0.48,0.96 0,0.96 -0.48,0.96 -4.799998,0 -7.679998,-0.16 l -11.2,-0.16 -10.88,0.16 q -2.88,0.16 -8,0.16 -0.32,0 -0.32,-0.96 0,-0.96 0.32,-0.96 6.08,0 8.8,-0.8 2.88,-0.8 3.84,-3.04 1.12,-2.4 1.12,-7.2 v -74.08 q 0,-4.8 -0.96,-7.04 -0.96,-2.24 -3.84,-3.04 -2.72,-0.96 -8.8,-0.96 -0.32,0 -0.32,-0.96 0,-0.96 0.32,-0.96 l 8,0.16 q 6.72,0.32 10.72,0.32 4.64,0 11.36,-0.32 l 7.519998,-0.16 q 0.48,0 0.48,0.96 0,0.96 -0.48,0.96 -5.919998,0 -8.799998,0.96 -2.72,0.96 -3.84,3.36 -0.96,2.24 -0.96,7.04 v 33.76 l 34.239998,-34.08 q 5.28,-5.28 5.28,-7.84 0,-3.2 -9.44,-3.2 -0.32,0 -0.32,-0.96 0,-0.96 0.32,-0.96 l 6.88,0.16 q 6.4,0.32 11.68,0.32 5.28,0 11.04,-0.32 l 5.92,-0.16 q 0.48,0 0.48,0.96 0,0.96 -0.48,0.96 -6.56,0 -13.92,2.88 -7.36,2.88 -13.76,9.12 l -25.28,24.8 23.04,29.44 q 11.68,15.2 17.76,21.44 6.24,6.24 9.6,7.36 3.36,1.12 9.76,1.12 z"
           style="stroke:#b3bf53"
           id="path33542" />
        <path
           d="m 249.73736,644.65702 q 0.32,0 0.32,0.96 0,0.96 -0.32,0.96 h -18.72 q -2.88,0 -10.24,-9.6 -7.2,-9.6 -17.44,-26.56 -3.04,0.64 -6.88,0.64 -4,0 -6.08,-0.32 v 22.88 q 0,4.96 0.8,7.2 0.8,2.24 3.2,3.04 2.4,0.8 7.84,0.8 0.32,0 0.32,0.96 0,0.96 -0.32,0.96 -4.48,0 -6.88,-0.16 l -10.08,-0.16 -9.44,0.16 q -2.72,0.16 -7.36,0.16 -0.32,0 -0.32,-0.96 0,-0.96 0.32,-0.96 5.28,0 7.68,-0.8 2.56,-0.8 3.52,-3.04 0.96,-2.4 0.96,-7.2 v -48.96 q 0,-4.8 -0.96,-7.04 -0.8,-2.24 -3.36,-3.04 -2.4,-0.96 -7.68,-0.96 -0.32,0 -0.32,-0.96 0,-0.96 0.32,-0.96 l 7.36,0.16 q 5.76,0.32 9.28,0.32 2.88,0 5.28,-0.16 2.56,-0.16 4.32,-0.32 4.96,-0.48 9.44,-0.48 10.4,0 15.84,4 5.44,4 5.44,11.52 0,6.4 -3.68,11.84 -3.68,5.44 -9.92,8.8 8.96,14.72 15.04,22.72 6.24,7.84 11.36,11.2 5.28,3.36 11.36,3.36 z m -59.36,-36.8 q 2.88,0.48 7.2,0.48 9.92,0 13.76,-4.32 4,-4.48 4,-12.96 0,-17.6 -15.2,-17.6 -6.08,0 -8,2.56 -1.76,2.56 -1.76,8.96 z"
           style="stroke:#b3bf53"
           id="path33544" />
        <path
           d="m 276.61721,633.61702 q 0,4.96 0.8,7.2 0.96,2.24 3.36,3.04 2.4,0.8 7.84,0.8 0.32,0 0.32,0.96 0,0.96 -0.32,0.96 -4.48,0 -7.04,-0.16 l -10.08,-0.16 -9.44,0.16 q -2.72,0.16 -7.36,0.16 -0.32,0 -0.32,-0.96 0,-0.96 0.32,-0.96 5.44,0 7.84,-0.8 2.4,-0.8 3.2,-3.04 0.96,-2.24 0.96,-7.2 v -48.96 q 0,-4.8 -0.96,-7.04 -0.8,-2.24 -3.36,-3.04 -2.4,-0.96 -7.68,-0.96 -0.32,0 -0.32,-0.96 0,-0.96 0.32,-0.96 l 7.36,0.16 q 5.76,0.32 9.44,0.32 4.16,0 10.24,-0.32 l 6.88,-0.16 q 0.32,0 0.32,0.96 0,0.96 -0.32,0.96 -5.12,0 -7.68,0.96 -2.56,0.96 -3.52,3.36 -0.8,2.24 -0.8,7.04 z"
           style="stroke:#b3bf53"
           id="path33546" />
        <path
           d="m 319.01709,573.77702 q -6.08,0 -9.6,1.76 -3.52,1.6 -5.6,5.6 -1.92,4 -3.04,11.36 0,0.32 -0.96,0.32 -0.8,0 -0.8,-0.32 0.48,-3.68 1.12,-11.84 0.64,-8.16 0.64,-12.48 0,-0.8 0.96,-0.8 0.96,0 0.96,0.8 0,2.08 2.4,2.72 2.4,0.48 5.92,0.48 14.08,0.32 24.16,0.32 l 13.92,-0.16 q 2.88,-0.16 7.52,-0.16 5.76,0 8.48,-0.64 2.72,-0.8 3.52,-3.2 0.32,-0.48 1.12,-0.48 0.8,0 0.8,0.48 -0.96,17.28 -0.96,24.96 0,0.32 -0.96,0.32 -0.8,0 -0.8,-0.32 -0.16,-7.2 -1.76,-11.2 -1.44,-4 -4.96,-5.76 -3.52,-1.76 -9.76,-1.76 -6.88,0 -9.12,2.24 -2.24,2.08 -2.24,8.64 v 48.96 q 0,4.96 0.96,7.2 0.96,2.24 3.68,3.04 2.72,0.8 8.96,0.8 0.48,0 0.48,0.96 0,0.96 -0.48,0.96 -4.96,0 -7.68,-0.16 l -11.2,-0.16 -10.72,0.16 q -2.88,0.16 -8,0.16 -0.32,0 -0.32,-0.96 0,-0.96 0.32,-0.96 6.08,0 8.96,-0.8 2.88,-0.8 3.84,-3.04 1.12,-2.4 1.12,-7.2 v -49.28 q 0,-4.64 -0.8,-6.72 -0.64,-2.24 -2.88,-3.04 -2.24,-0.8 -7.2,-0.8 z"
           style="stroke:#b3bf53"
           id="path33548" />
        <path
           d="m 457.73655,644.65702 q 0.64,0 0.64,0.96 0,0.96 -0.64,0.96 -2.88,0 -9.28,-0.32 -6.4,-0.32 -9.28,-0.32 -2.56,0 -6.72,0.32 -4.16,0.32 -6.4,0.32 -0.64,0 -0.64,-0.96 0,-0.96 0.64,-0.96 4.16,0 6.08,-0.96 2.08,-1.12 2.08,-3.84 0,-2.4 -1.92,-6.72 l -10.88,-23.36 h -22.4 l -6.88,17.12 q -2.56,6.08 -2.56,10.08 0,4.16 2.88,5.92 2.88,1.76 8.8,1.76 0.8,0 0.8,0.96 0,0.96 -0.8,0.96 -2.4,0 -6.56,-0.32 -4.48,-0.32 -8.32,-0.32 -4,0 -9.44,0.32 -4.8,0.32 -7.68,0.32 -0.8,0 -0.8,-0.96 0,-0.96 0.8,-0.96 4.96,0 7.84,-1.28 2.88,-1.44 5.28,-5.44 2.56,-4 6.08,-12.48 l 23.04,-56.16 q 0.32,-0.64 0.96,-0.64 0.64,0 0.8,0.64 l 25.76,55.36 q 4.16,8.96 6.56,12.96 2.56,4 5.12,5.6 2.72,1.44 7.04,1.44 z m -57.6,-37.76 h 20 l -10.72,-23.04 z"
           style="stroke:#b3bf53"
           id="path33550" />
      </g>
      <g
         aria-label="Aseprite"
         transform="matrix(0.26458333,0,0,0.26458333,-79.209295,76.341164)"
         id="text16995-9"
         style="font-size:160px;font-family:'Cormorant SC';-inkscape-font-specification:'Cormorant SC';white-space:pre;shape-inside:url(#rect16997-6);display:inline;fill:#b9e5c2;stroke:#3c7e4b;stroke-width:2.47181;stroke-linecap:round;stroke-linejoin:round">
        <path
           d="m 170.69742,644.65702 q 0.64,0 0.64,0.96 0,0.96 -0.64,0.96 -3.04,0 -9.44,-0.32 -6.4,-0.32 -9.28,-0.32 -3.52,0 -8.96,0.32 -5.12,0.32 -7.84,0.32 -0.64,0 -0.64,-0.96 0,-0.96 0.64,-0.96 5.92,0 8.64,-1.12 2.72,-1.12 2.72,-3.84 0,-2.24 -2.08,-6.88 l -18.4,-39.2 H 95.817422 l -13.76,32.64 q -2.24,5.44 -2.24,8.96 0,9.44 15.68,9.44 0.8,0 0.8,0.96 0,0.96 -0.8,0.96 -2.88,0 -8.32,-0.32 -6.08,-0.32 -10.56,-0.32 -4.16,0 -9.6,0.32 -4.8,0.32 -8,0.32 -0.8,0 -0.8,-0.96 0,-0.96 0.8,-0.96 4.48,0 7.52,-1.6 3.2,-1.76 5.92,-5.92 2.88,-4.32 6.24,-12.32 l 33.759998,-79.68 q 0.32,-0.48 1.12,-0.48 0.8,0 0.96,0.48 l 37.76,79.52 q 5.44,11.84 9.28,16 3.84,4 9.12,4 z m -73.439998,-54.4 h 27.199998 l -14.4,-30.4 z"
           id="path33553" />
        <path
           d="m 190.05737,584.65702 q 0,4.8 2.4,8.48 2.56,3.52 6.24,5.92 3.68,2.4 9.76,5.6 6.56,3.52 10.56,6.24 4,2.56 6.72,6.56 2.72,4 2.72,9.6 0,5.92 -3.36,10.88 -3.2,4.8 -9.28,7.68 -6.08,2.88 -14.24,2.88 -11.68,0 -19.36,-5.6 -0.8,-0.32 -1.12,-0.96 -0.16,-0.64 -0.32,-2.08 l -1.6,-15.84 q -0.16,-0.64 0.64,-0.8 0.96,-0.16 1.28,0.48 2.24,9.28 8.8,15.84 6.72,6.4 14.88,6.4 5.6,0 9.6,-3.2 4.16,-3.36 4.16,-10.24 0,-7.36 -4.8,-12 -4.8,-4.64 -13.92,-9.44 -6.4,-3.52 -10.24,-6.08 -3.68,-2.72 -6.24,-6.56 -2.56,-3.84 -2.56,-9.28 0,-9.12 7.04,-14.24 7.04,-5.12 17.12,-5.12 8.48,0 16,3.68 1.44,0.8 1.76,1.28 0.48,0.32 0.64,1.44 l 1.12,13.92 q 0,0.64 -0.96,0.8 -0.8,0.16 -0.96,-0.48 -0.8,-4 -3.68,-8.16 -2.72,-4.32 -7.2,-7.2 -4.32,-2.88 -9.6,-2.88 -5.76,0 -8.96,3.52 -3.04,3.52 -3.04,8.96 z"
           id="path33555" />
        <path
           d="m 299.97731,625.29702 q 0,-0.48 0.8,-0.48 0.96,0 0.96,0.48 -1.12,11.52 -1.12,18.88 0,1.28 -0.48,1.92 -0.48,0.48 -1.92,0.48 h -58.56 q -0.32,0 -0.32,-0.96 0,-0.96 0.32,-0.96 5.28,0 7.68,-0.8 2.4,-0.8 3.2,-3.04 0.96,-2.4 0.96,-7.2 v -48.96 q 0,-4.8 -0.96,-7.04 -0.8,-2.24 -3.2,-3.04 -2.4,-0.96 -7.68,-0.96 -0.32,0 -0.32,-0.96 0,-0.96 0.32,-0.96 h 55.68 q 1.6,0 1.6,1.28 l 0.16,9.92 q 0.16,3.04 0.16,7.68 0,0.48 -0.96,0.48 -0.96,0 -0.96,-0.48 -0.64,-7.36 -5.44,-12 -4.64,-4.8 -11.52,-4.8 h -4.48 q -5.6,0 -8.16,0.96 -2.56,0.8 -3.52,3.04 -0.96,2.24 -0.96,7.04 v 21.92 q 15.52,-0.16 21.12,-0.8 5.76,-0.8 6.56,-0.8 0.8,0 0.8,3.36 0,3.68 -0.8,3.68 -0.64,0 -6.4,-0.8 -5.76,-0.96 -21.28,-1.28 v 22.88 q 0,4.64 0.96,7.04 0.96,2.24 3.52,3.2 2.72,0.8 8.16,0.8 h 7.68 q 6.4,0 11.52,-5.12 5.12,-5.28 6.88,-13.6 z"
           id="path33557" />
        <path
           d="m 335.49712,632.97702 q 0,5.12 1.12,7.52 1.12,2.24 4.32,3.2 3.36,0.96 10.4,0.96 0.48,0 0.48,0.96 0,0.96 -0.48,0.96 -5.76,0 -8.8,-0.16 l -11.84,-0.16 -9.44,0.16 q -2.72,0.16 -7.36,0.16 -0.32,0 -0.32,-0.96 0,-0.96 0.32,-0.96 5.28,0 7.68,-0.8 2.4,-0.8 3.2,-3.04 0.96,-2.4 0.96,-7.2 v -48.96 q 0,-4.8 -0.96,-7.04 -0.8,-2.24 -3.36,-3.04 -2.4,-0.96 -7.52,-0.96 -0.32,0 -0.32,-0.96 0,-0.96 0.32,-0.96 l 7.2,0.16 q 6.08,0.32 9.44,0.32 2.72,0 5.12,-0.16 2.56,-0.16 4.32,-0.32 4.96,-0.48 9.28,-0.48 26.4,0 26.4,19.52 0,7.68 -4,12.96 -3.84,5.12 -9.92,7.68 -5.92,2.56 -12.32,2.56 -4.32,0 -7.04,-0.64 -0.32,0 -0.32,-0.8 0,-1.28 0.8,-1.28 2.4,0.48 4.96,0.48 7.04,0 11.84,-4.48 4.96,-4.64 4.96,-13.28 0,-10.08 -5.28,-15.2 -5.12,-5.28 -13.92,-5.28 -4,0 -6.08,0.64 -1.92,0.64 -2.88,3.04 -0.96,2.4 -0.96,7.84 z"
           id="path33559" />
        <path
           d="m 469.0971,644.65702 q 0.32,0 0.32,0.96 0,0.96 -0.32,0.96 h -18.72 q -2.88,0 -10.24,-9.6 -7.2,-9.6 -17.44,-26.56 -3.04,0.64 -6.88,0.64 -4,0 -6.08,-0.32 v 22.88 q 0,4.96 0.8,7.2 0.8,2.24 3.2,3.04 2.4,0.8 7.84,0.8 0.32,0 0.32,0.96 0,0.96 -0.32,0.96 -4.48,0 -6.88,-0.16 l -10.08,-0.16 -9.44,0.16 q -2.72,0.16 -7.36,0.16 -0.32,0 -0.32,-0.96 0,-0.96 0.32,-0.96 5.28,0 7.68,-0.8 2.56,-0.8 3.52,-3.04 0.96,-2.4 0.96,-7.2 v -48.96 q 0,-4.8 -0.96,-7.04 -0.8,-2.24 -3.36,-3.04 -2.4,-0.96 -7.68,-0.96 -0.32,0 -0.32,-0.96 0,-0.96 0.32,-0.96 l 7.36,0.16 q 5.76,0.32 9.28,0.32 2.88,0 5.28,-0.16 2.56,-0.16 4.32,-0.32 4.96,-0.48 9.44,-0.48 10.4,0 15.84,4 5.44,4 5.44,11.52 0,6.4 -3.68,11.84 -3.68,5.44 -9.92,8.8 8.96,14.72 15.04,22.72 6.24,7.84 11.36,11.2 5.28,3.36 11.36,3.36 z m -59.36,-36.8 q 2.88,0.48 7.2,0.48 9.92,0 13.76,-4.32 4,-4.48 4,-12.96 0,-17.6 -15.2,-17.6 -6.08,0 -8,2.56 -1.76,2.56 -1.76,8.96 z"
           id="path33561" />
        <path
           d="m 495.97695,633.61702 q 0,4.96 0.8,7.2 0.96,2.24 3.36,3.04 2.4,0.8 7.84,0.8 0.32,0 0.32,0.96 0,0.96 -0.32,0.96 -4.48,0 -7.04,-0.16 l -10.08,-0.16 -9.44,0.16 q -2.72,0.16 -7.36,0.16 -0.32,0 -0.32,-0.96 0,-0.96 0.32,-0.96 5.44,0 7.84,-0.8 2.4,-0.8 3.2,-3.04 0.96,-2.24 0.96,-7.2 v -48.96 q 0,-4.8 -0.96,-7.04 -0.8,-2.24 -3.36,-3.04 -2.4,-0.96 -7.68,-0.96 -0.32,0 -0.32,-0.96 0,-0.96 0.32,-0.96 l 7.36,0.16 q 5.76,0.32 9.44,0.32 4.16,0 10.24,-0.32 l 6.88,-0.16 q 0.32,0 0.32,0.96 0,0.96 -0.32,0.96 -5.12,0 -7.68,0.96 -2.56,0.96 -3.52,3.36 -0.8,2.24 -0.8,7.04 z"
           id="path33563" />
        <path
           d="m 538.37683,573.77702 q -6.08,0 -9.6,1.76 -3.52,1.6 -5.6,5.6 -1.92,4 -3.04,11.36 0,0.32 -0.96,0.32 -0.8,0 -0.8,-0.32 0.48,-3.68 1.12,-11.84 0.64,-8.16 0.64,-12.48 0,-0.8 0.96,-0.8 0.96,0 0.96,0.8 0,2.08 2.4,2.72 2.4,0.48 5.92,0.48 14.08,0.32 24.16,0.32 l 13.92,-0.16 q 2.88,-0.16 7.52,-0.16 5.76,0 8.48,-0.64 2.72,-0.8 3.52,-3.2 0.32,-0.48 1.12,-0.48 0.8,0 0.8,0.48 -0.96,17.28 -0.96,24.96 0,0.32 -0.96,0.32 -0.8,0 -0.8,-0.32 -0.16,-7.2 -1.76,-11.2 -1.44,-4 -4.96,-5.76 -3.52,-1.76 -9.76,-1.76 -6.88,0 -9.12,2.24 -2.24,2.08 -2.24,8.64 v 48.96 q 0,4.96 0.96,7.2 0.96,2.24 3.68,3.04 2.72,0.8 8.96,0.8 0.48,0 0.48,0.96 0,0.96 -0.48,0.96 -4.96,0 -7.68,-0.16 l -11.2,-0.16 -10.72,0.16 q -2.88,0.16 -8,0.16 -0.32,0 -0.32,-0.96 0,-0.96 0.32,-0.96 6.08,0 8.96,-0.8 2.88,-0.8 3.84,-3.04 1.12,-2.4 1.12,-7.2 v -49.28 q 0,-4.64 -0.8,-6.72 -0.64,-2.24 -2.88,-3.04 -2.24,-0.8 -7.2,-0.8 z"
           id="path33565" />
        <path
           d="m 659.65657,625.29702 q 0,-0.48 0.8,-0.48 0.96,0 0.96,0.48 -1.12,11.52 -1.12,18.88 0,1.28 -0.48,1.92 -0.48,0.48 -1.92,0.48 h -58.56 q -0.32,0 -0.32,-0.96 0,-0.96 0.32,-0.96 5.28,0 7.68,-0.8 2.4,-0.8 3.2,-3.04 0.96,-2.4 0.96,-7.2 v -48.96 q 0,-4.8 -0.96,-7.04 -0.8,-2.24 -3.2,-3.04 -2.4,-0.96 -7.68,-0.96 -0.32,0 -0.32,-0.96 0,-0.96 0.32,-0.96 h 55.68 q 1.6,0 1.6,1.28 l 0.16,9.92 q 0.16,3.04 0.16,7.68 0,0.48 -0.96,0.48 -0.96,0 -0.96,-0.48 -0.64,-7.36 -5.44,-12 -4.64,-4.8 -11.52,-4.8 h -4.48 q -5.6,0 -8.16,0.96 -2.56,0.8 -3.52,3.04 -0.96,2.24 -0.96,7.04 v 21.92 q 15.52,-0.16 21.12,-0.8 5.76,-0.8 6.56,-0.8 0.8,0 0.8,3.36 0,3.68 -0.8,3.68 -0.64,0 -6.4,-0.8 -5.76,-0.96 -21.28,-1.28 v 22.88 q 0,4.64 0.96,7.04 0.96,2.24 3.52,3.2 2.72,0.8 8.16,0.8 h 7.68 q 6.4,0 11.52,-5.12 5.12,-5.28 6.88,-13.6 z"
           id="path33567" />
      </g>
    </g>
  </g>
</svg>
