<?xml version="1.0" encoding="UTF-8" standalone="no"?>
<svg
   width="1170.1997"
   height="395.9996"
   viewBox="0 0 1170.1997 395.9996"
   fill="none"
   version="1.1"
   id="svg20"
   sodipodi:docname="logo.svg"
   inkscape:version="1.2 (dc2aeda, 2022-05-15)"
   xmlns:inkscape="http://www.inkscape.org/namespaces/inkscape"
   xmlns:sodipodi="http://sodipodi.sourceforge.net/DTD/sodipodi-0.dtd"
   xmlns="http://www.w3.org/2000/svg"
   xmlns:svg="http://www.w3.org/2000/svg">
  <defs
     id="defs24" />
  <sodipodi:namedview
     id="namedview22"
     pagecolor="#ffffff"
     bordercolor="#000000"
     borderopacity="0.25"
     inkscape:showpageshadow="2"
     inkscape:pageopacity="0.0"
     inkscape:pagecheckerboard="0"
     inkscape:deskcolor="#d1d1d1"
     showgrid="false"
     inkscape:zoom="0.16"
     inkscape:cx="31.25"
     inkscape:cy="200"
     inkscape:window-width="1309"
     inkscape:window-height="430"
     inkscape:window-x="0"
     inkscape:window-y="25"
     inkscape:window-maximized="0"
     inkscape:current-layer="svg20" />
  <path
     d="m 590.73072,239.93102 c -2.146,0 -3.917,-0.699 -5.312,-2.097 -1.395,-1.398 -2.093,-3.172 -2.093,-5.323 v -46.291 c 0,-7.096 -1.824,-12.527 -5.473,-16.29 -3.541,-3.764 -8.156,-5.645 -13.843,-5.645 -6.01,0 -10.947,2.096 -14.81,6.29 -3.756,4.086 -5.634,9.409 -5.634,15.968 h -12.556 c 0.108,-7.097 1.664,-13.333 4.668,-18.71 3.005,-5.376 7.191,-9.57 12.556,-12.581 5.366,-3.01 11.429,-4.516 18.19,-4.516 6.224,0 11.697,1.398 16.419,4.194 4.829,2.795 8.585,6.882 11.268,12.258 2.683,5.269 4.025,11.613 4.025,19.032 v 46.291 c 0,2.151 -0.698,3.925 -2.093,5.323 -1.288,1.398 -3.058,2.097 -5.312,2.097 z m -109.461,0 c -2.146,0 -3.917,-0.699 -5.312,-2.097 -1.395,-1.398 -2.093,-3.172 -2.093,-5.323 v -73.388 c 0,-2.258 0.698,-4.032 2.093,-5.322 1.395,-1.398 3.166,-2.097 5.312,-2.097 2.254,0 4.024,0.699 5.312,2.097 1.395,1.29 2.093,3.064 2.093,5.322 v 73.388 c 0,2.151 -0.698,3.925 -2.093,5.323 -1.288,1.398 -3.058,2.097 -5.312,2.097 z m 54.891,0 c -2.146,0 -3.917,-0.699 -5.312,-2.097 -1.395,-1.398 -2.092,-3.172 -2.092,-5.323 v -46.291 c 0,-7.096 -1.825,-12.527 -5.473,-16.29 -3.542,-3.764 -8.156,-5.645 -13.844,-5.645 -6.01,0 -11,2.043 -14.97,6.129 -3.864,4.086 -5.795,9.301 -5.795,15.645 h -9.659 c 0.108,-6.882 1.556,-12.957 4.347,-18.226 2.897,-5.376 6.814,-9.57 11.751,-12.581 4.936,-3.01 10.516,-4.516 16.741,-4.516 6.224,0 11.697,1.398 16.419,4.194 4.829,2.795 8.585,6.882 11.268,12.258 2.683,5.269 4.024,11.613 4.024,19.032 v 46.291 c 0,2.151 -0.697,3.925 -2.093,5.323 -1.287,1.398 -3.058,2.097 -5.312,2.097 z"
     fill="$dark-gray"
     id="path2"
     style="fill:#fefefe;fill-opacity:1" />
  <path
     d="m 666.29172,240.41502 c -8.907,0 -16.795,-1.882 -23.663,-5.646 -6.761,-3.871 -12.073,-9.14 -15.936,-15.806 -3.863,-6.775 -5.795,-14.517 -5.795,-23.226 0,-8.818 1.824,-16.56 5.473,-23.226 3.649,-6.775 8.693,-12.044 15.131,-15.807 6.439,-3.871 13.898,-5.807 22.376,-5.807 8.263,0 15.399,1.882 21.409,5.646 6.009,3.656 10.624,8.763 13.843,15.322 3.22,6.452 4.83,13.925 4.83,22.42 0,1.828 -0.644,3.387 -1.932,4.678 -1.181,1.182 -2.79,1.774 -4.829,1.774 h -66.16 v -11.936 h 66.321 l -6.6,4.678 c -0.107,-5.699 -1.234,-10.807 -3.381,-15.323 -2.146,-4.516 -5.204,-8.065 -9.175,-10.645 -3.971,-2.581 -8.746,-3.871 -14.326,-3.871 -6.117,0 -11.429,1.397 -15.937,4.193 -4.4,2.796 -7.78,6.613 -10.141,11.452 -2.361,4.839 -3.541,10.323 -3.541,16.452 0,6.129 1.341,11.613 4.024,16.451 2.79,4.732 6.546,8.495 11.268,11.291 4.829,2.796 10.41,4.194 16.741,4.194 3.434,0 6.976,-0.646 10.624,-1.936 3.756,-1.29 6.707,-2.796 8.854,-4.516 1.502,-1.183 3.112,-1.774 4.829,-1.774 1.717,-0.108 3.219,0.376 4.507,1.451 1.61,1.506 2.468,3.172 2.576,5 0.107,1.721 -0.644,3.226 -2.254,4.516 -3.649,2.904 -8.209,5.323 -13.683,7.259 -5.365,1.828 -10.516,2.742 -15.453,2.742 z"
     fill="$dark-gray"
     id="path4"
     style="fill:#fefefe;fill-opacity:1" />
  <path
     d="m 745.03372,239.76902 c -4.507,0 -8.532,-1.236 -12.073,-3.709 -3.541,-2.473 -6.332,-5.861 -8.371,-10.162 -1.931,-4.408 -2.897,-9.462 -2.897,-15.161 v -89.679 c 0,-2.15 0.644,-3.871 1.932,-5.161 1.395,-1.398 3.165,-2.097 5.312,-2.097 2.253,0 4.024,0.699 5.312,2.097 1.395,1.29 2.092,3.011 2.092,5.161 v 89.679 c 0,4.193 0.805,7.634 2.415,10.323 1.717,2.688 3.81,4.032 6.278,4.032 h 4.024 c 2.039,0 3.649,0.699 4.829,2.097 1.181,1.29 1.771,3.064 1.771,5.322 0,2.151 -0.912,3.925 -2.737,5.323 -1.717,1.29 -3.97,1.935 -6.76,1.935 z"
     fill="$dark-gray"
     id="path6"
     style="fill:#fefefe;fill-opacity:1" />
  <path
     d="m 807.11972,240.41502 c -8.585,0 -16.258,-1.882 -23.019,-5.646 -6.654,-3.871 -11.912,-9.14 -15.775,-15.806 -3.756,-6.775 -5.634,-14.517 -5.634,-23.226 0,-8.818 1.878,-16.56 5.634,-23.226 3.863,-6.775 9.121,-12.044 15.775,-15.807 6.761,-3.871 14.434,-5.807 23.019,-5.807 8.585,0 16.204,1.936 22.858,5.807 6.761,3.763 12.019,9.032 15.775,15.807 3.867,6.666 5.847,14.408 5.957,23.226 0,8.709 -1.93,16.451 -5.796,23.226 -3.863,6.666 -9.122,11.935 -15.775,15.806 -6.654,3.764 -14.327,5.646 -23.019,5.646 z m 0,-13.226 c 5.902,0 11.107,-1.344 15.614,-4.033 4.507,-2.688 8.049,-6.398 10.624,-11.129 2.576,-4.731 3.864,-10.161 3.864,-16.29 0,-6.129 -1.288,-11.56 -3.864,-16.291 -2.575,-4.839 -6.117,-8.602 -10.624,-11.29 -4.507,-2.688 -9.712,-4.033 -15.614,-4.033 -5.795,0 -11,1.345 -15.614,4.033 -4.508,2.688 -8.049,6.451 -10.624,11.29 -2.576,4.731 -3.864,10.162 -3.864,16.291 0,6.129 1.288,11.559 3.864,16.29 2.575,4.731 6.116,8.441 10.624,11.129 4.614,2.689 9.819,4.033 15.614,4.033 z"
     fill="$dark-gray"
     id="path8"
     style="fill:#fefefe;fill-opacity:1" />
  <path
     d="m 950.82972,239.93102 c -2.14,0 -3.97,-0.699 -5.47,-2.097 -1.4,-1.505 -2.09,-3.28 -2.09,-5.323 v -40.645 c 0,-6.345 -1.18,-11.506 -3.54,-15.484 -2.37,-4.086 -5.53,-7.097 -9.5,-9.033 -3.97,-2.043 -8.53,-3.064 -13.68,-3.064 -4.83,0 -9.18,0.967 -13.04,2.903 -3.87,1.935 -6.98,4.516 -9.34,7.742 -2.25,3.226 -3.38,6.936 -3.38,11.129 h -9.66 c 0.11,-6.774 1.83,-12.796 5.15,-18.065 3.33,-5.376 7.84,-9.57 13.52,-12.58 5.69,-3.119 12.08,-4.678 19.16,-4.678 7.51,0 14.22,1.613 20.12,4.839 5.9,3.118 10.57,7.742 14.01,13.871 3.43,6.129 5.15,13.602 5.15,22.42 v 40.645 c 0,2.043 -0.75,3.818 -2.26,5.323 -1.39,1.398 -3.11,2.097 -5.15,2.097 z m -67.44,0 c -2.15,0 -3.92,-0.699 -5.32,-2.097 -1.39,-1.398 -2.09,-3.172 -2.09,-5.323 v -73.549 c 0,-2.258 0.7,-4.032 2.09,-5.323 1.4,-1.397 3.17,-2.096 5.32,-2.096 2.25,0 4.02,0.699 5.31,2.096 1.39,1.291 2.09,3.065 2.09,5.323 v 73.549 c 0,2.151 -0.7,3.925 -2.09,5.323 -1.29,1.398 -3.06,2.097 -5.31,2.097 z"
     fill="$dark-gray"
     id="path10"
     style="fill:#fefefe;fill-opacity:1" />
  <path
     d="m 1016.4597,241.38202 c -7.41,0 -14.01,-1.613 -19.79998,-4.838 -5.8,-3.334 -10.36,-7.904 -13.68,-13.71 -3.22,-5.807 -4.83,-12.42 -4.83,-19.839 0,-2.151 0.7,-3.925 2.09,-5.323 1.5,-1.505 3.33,-2.258 5.47,-2.258 2.26,0 4.08,0.753 5.48,2.258 1.39,1.398 2.09,3.172 2.09,5.323 0,4.731 1.02,8.978 3.06,12.742 2.04,3.656 4.76998,6.559 8.20998,8.71 3.54,2.043 7.51,3.064 11.91,3.064 4.51,0 8.48,-1.075 11.91,-3.226 3.54,-2.15 6.28,-5.053 8.21,-8.709 2.04,-3.656 3.06,-7.85 3.06,-12.581 v -81.614 c 0,-2.258 0.7,-4.086 2.09,-5.484 1.5,-1.398 3.33,-2.097 5.47,-2.097 2.15,0 3.92,0.699 5.32,2.097 1.5,1.398 2.25,3.226 2.25,5.484 v 81.614 c 0,7.419 -1.66,14.032 -4.99,19.839 -3.33,5.806 -7.89,10.376 -13.68,13.71 -5.69,3.225 -12.24,4.838 -19.64,4.838 z"
     fill="$dark-gray"
     id="path12"
     style="display:inline;fill:#fefefe;fill-opacity:1" />
  <path
     d="m 1126.4197,241.38202 c -6.87,0 -13.36,-1.021 -19.48,-3.064 -6.01,-2.151 -11.27,-5.108 -15.77,-8.871 -4.51,-3.764 -7.84,-8.172 -9.99,-13.226 -1.07,-2.043 -1.12,-3.925 -0.16,-5.645 1.08,-1.721 2.79,-2.85 5.15,-3.388 1.83,-0.43 3.6,-0.161 5.32,0.807 1.71,0.86 3,2.204 3.86,4.032 1.4,2.903 3.6,5.538 6.6,7.903 3,2.259 6.6,4.087 10.79,5.484 4.29,1.398 8.85,2.097 13.68,2.097 5.36,0 10.19,-0.86 14.49,-2.58 4.4,-1.721 7.88,-4.194 10.46,-7.42 2.68,-3.333 4.02,-7.366 4.02,-12.097 0,-6.021 -2.3,-11.344 -6.92,-15.968 -4.61,-4.623 -12.02,-7.527 -22.21,-8.71 -12.99,-1.397 -23.18,-5.322 -30.59,-11.774 -7.4,-6.452 -11.1,-14.409 -11.1,-23.871 0,-6.882 1.87,-12.742 5.63,-17.581 3.76,-4.946 8.91,-8.71 15.45,-11.29 6.55,-2.581 13.95,-3.871 22.22,-3.871 6.22,0 11.75,0.914 16.58,2.742 4.93,1.828 9.17,4.354 12.71,7.58 3.65,3.119 6.76,6.721 9.34,10.807 1.29,2.15 1.77,4.193 1.45,6.129 -0.22,1.828 -1.18,3.28 -2.9,4.355 -1.93,1.075 -3.97,1.29 -6.12,0.645 -2.03,-0.645 -3.59,-1.882 -4.66,-3.71 -1.61,-2.903 -3.65,-5.43 -6.12,-7.58 -2.47,-2.151 -5.42,-3.871 -8.85,-5.162 -3.33,-1.29 -7.3,-1.935 -11.92,-1.935 -8.15,-0.108 -14.86,1.505 -20.12,4.839 -5.26,3.225 -7.89,8.118 -7.89,14.677 0,3.441 0.86,6.667 2.58,9.678 1.82,2.903 4.94,5.484 9.34,7.742 4.5,2.15 10.78,3.709 18.83,4.677 12.99,1.506 22.91,5.484 29.78,11.936 6.87,6.344 10.3,14.731 10.3,25.161 0,6.022 -1.18,11.291 -3.54,15.807 -2.25,4.516 -5.42,8.333 -9.5,11.452 -4.07,3.01 -8.8,5.322 -14.16,6.935 -5.26,1.506 -10.79,2.258 -16.58,2.258 z"
     fill="$dark-gray"
     id="path14"
     style="fill:#fefefe;fill-opacity:1" />
  <g
     id="g309"
     inkscape:label="icon"
     transform="translate(-152.00028,-539.99998)">
    <path
       fill-rule="evenodd"
       clip-rule="evenodd"
       d="m 281.615,575.456 c -38.331,16.126 -69.729,45.28 -88.65,82.312 -18.92,37.032 -24.144,79.559 -14.75,120.069 9.395,40.51 32.803,76.397 66.091,101.322 33.288,24.925 74.314,37.283 115.83,34.893 41.517,-2.39 80.853,-19.376 111.06,-47.956 30.208,-28.581 49.343,-66.917 54.026,-108.238 4.683,-41.321 -5.388,-82.967 -28.433,-117.583 -3.315,-4.978 -1.966,-11.7 3.012,-15.014 4.978,-3.314 11.7,-1.965 15.014,3.013 25.876,38.866 37.183,85.627 31.925,132.023 -5.258,46.395 -26.743,89.439 -60.66,121.53 -33.917,32.09 -78.084,51.162 -124.699,53.845 -46.615,2.684 -92.679,-11.192 -130.055,-39.178 -37.376,-27.985 -63.659,-68.279 -74.207,-113.765 -10.548,-45.485 -4.682,-93.234 16.561,-134.814 21.244,-41.58 56.499,-74.314 99.537,-92.421 43.039,-18.107 91.091,-20.421 135.671,-6.534 5.709,1.778 8.896,7.849 7.118,13.558 -1.779,5.71 -7.849,8.897 -13.559,7.118 -39.704,-12.368 -82.501,-10.307 -120.832,5.82 z"
       fill="#6ba831"
       id="path16"
       style="display:inline" />
    <path
       fill-rule="evenodd"
       clip-rule="evenodd"
       d="m 465.212,602.063 c 6.404,0 11.597,-5.178 11.597,-11.565 0,-6.387 -5.193,-11.565 -11.597,-11.565 -6.405,0 -11.597,5.178 -11.597,11.565 0,6.387 5.192,11.565 11.597,11.565 z m -109.799,99.934 c 10.107,-10.079 22.337,-15.12 36.686,-15.12 14.349,0 26.575,5.041 36.682,15.12 10.106,10.079 15.161,22.272 15.161,36.582 v 41.064 c 0,5.872 -4.775,10.638 -10.667,10.638 -6.383,0 -11.554,-5.157 -11.554,-11.518 v -39.687 c 0,-7.41 -2.527,-14.709 -7.533,-20.186 -5.707,-6.246 -12.643,-9.524 -20.811,-9.832 -8.939,-0.337 -17.681,3.425 -23.614,10.107 -4.862,5.47 -7.29,11.942 -7.29,19.414 v 40.706 c 0,6.07 -4.94,10.996 -11.031,10.996 -6.18,0 -11.19,-4.992 -11.19,-11.156 v -40.546 c 0,-7.472 -2.425,-13.94 -7.286,-19.414 -5.934,-6.682 -14.675,-10.444 -23.615,-10.107 -8.164,0.308 -15.096,3.581 -20.807,9.82 -5.009,5.477 -7.541,12.78 -7.541,20.19 v 40.205 c 0,6.077 -4.94,11.008 -11.034,11.008 -6.177,0 -11.183,-4.988 -11.183,-11.152 v -40.55 c 0,-14.31 5.051,-26.503 15.162,-36.582 10.102,-10.079 22.332,-15.12 36.681,-15.12 14.35,0 26.575,5.041 36.682,15.12 1.468,1.46 2.816,2.957 4.049,4.499 1.237,-1.542 2.585,-3.039 4.053,-4.499 z"
       fill="#d1655b"
       id="path18"
       style="display:inline" />
  </g>
</svg>
