<?xml version="1.0" encoding="UTF-8" standalone="no"?>
<svg
   width="395.99954"
   height="395.9996"
   viewBox="0 0 395.99954 395.9996"
   fill="none"
   version="1.1"
   id="svg20"
   sodipodi:docname="favicon.svg"
   inkscape:version="1.2 (dc2aeda, 2022-05-15)"
   xmlns:inkscape="http://www.inkscape.org/namespaces/inkscape"
   xmlns:sodipodi="http://sodipodi.sourceforge.net/DTD/sodipodi-0.dtd"
   xmlns="http://www.w3.org/2000/svg"
   xmlns:svg="http://www.w3.org/2000/svg">
  <defs
     id="defs24" />
  <sodipodi:namedview
     id="namedview22"
     pagecolor="#ffffff"
     bordercolor="#000000"
     borderopacity="0.25"
     inkscape:showpageshadow="2"
     inkscape:pageopacity="0.0"
     inkscape:pagecheckerboard="0"
     inkscape:deskcolor="#d1d1d1"
     showgrid="false"
     inkscape:zoom="0.16"
     inkscape:cx="-368.75"
     inkscape:cy="206.25"
     inkscape:window-width="1309"
     inkscape:window-height="430"
     inkscape:window-x="0"
     inkscape:window-y="25"
     inkscape:window-maximized="0"
     inkscape:current-layer="svg20" />
  <g
     id="g309"
     inkscape:label="icon"
     transform="translate(-152.00028,-539.99998)">
    <path
       fill-rule="evenodd"
       clip-rule="evenodd"
       d="m 281.615,575.456 c -38.331,16.126 -69.729,45.28 -88.65,82.312 -18.92,37.032 -24.144,79.559 -14.75,120.069 9.395,40.51 32.803,76.397 66.091,101.322 33.288,24.925 74.314,37.283 115.83,34.893 41.517,-2.39 80.853,-19.376 111.06,-47.956 30.208,-28.581 49.343,-66.917 54.026,-108.238 4.683,-41.321 -5.388,-82.967 -28.433,-117.583 -3.315,-4.978 -1.966,-11.7 3.012,-15.014 4.978,-3.314 11.7,-1.965 15.014,3.013 25.876,38.866 37.183,85.627 31.925,132.023 -5.258,46.395 -26.743,89.439 -60.66,121.53 -33.917,32.09 -78.084,51.162 -124.699,53.845 -46.615,2.684 -92.679,-11.192 -130.055,-39.178 -37.376,-27.985 -63.659,-68.279 -74.207,-113.765 -10.548,-45.485 -4.682,-93.234 16.561,-134.814 21.244,-41.58 56.499,-74.314 99.537,-92.421 43.039,-18.107 91.091,-20.421 135.671,-6.534 5.709,1.778 8.896,7.849 7.118,13.558 -1.779,5.71 -7.849,8.897 -13.559,7.118 -39.704,-12.368 -82.501,-10.307 -120.832,5.82 z"
       fill="#6ba831"
       id="path16"
       style="display:inline" />
    <path
       fill-rule="evenodd"
       clip-rule="evenodd"
       d="m 465.212,602.063 c 6.404,0 11.597,-5.178 11.597,-11.565 0,-6.387 -5.193,-11.565 -11.597,-11.565 -6.405,0 -11.597,5.178 -11.597,11.565 0,6.387 5.192,11.565 11.597,11.565 z m -109.799,99.934 c 10.107,-10.079 22.337,-15.12 36.686,-15.12 14.349,0 26.575,5.041 36.682,15.12 10.106,10.079 15.161,22.272 15.161,36.582 v 41.064 c 0,5.872 -4.775,10.638 -10.667,10.638 -6.383,0 -11.554,-5.157 -11.554,-11.518 v -39.687 c 0,-7.41 -2.527,-14.709 -7.533,-20.186 -5.707,-6.246 -12.643,-9.524 -20.811,-9.832 -8.939,-0.337 -17.681,3.425 -23.614,10.107 -4.862,5.47 -7.29,11.942 -7.29,19.414 v 40.706 c 0,6.07 -4.94,10.996 -11.031,10.996 -6.18,0 -11.19,-4.992 -11.19,-11.156 v -40.546 c 0,-7.472 -2.425,-13.94 -7.286,-19.414 -5.934,-6.682 -14.675,-10.444 -23.615,-10.107 -8.164,0.308 -15.096,3.581 -20.807,9.82 -5.009,5.477 -7.541,12.78 -7.541,20.19 v 40.205 c 0,6.077 -4.94,11.008 -11.034,11.008 -6.177,0 -11.183,-4.988 -11.183,-11.152 v -40.55 c 0,-14.31 5.051,-26.503 15.162,-36.582 10.102,-10.079 22.332,-15.12 36.681,-15.12 14.35,0 26.575,5.041 36.682,15.12 1.468,1.46 2.816,2.957 4.049,4.499 1.237,-1.542 2.585,-3.039 4.053,-4.499 z"
       fill="#d1655b"
       id="path18"
       style="display:inline" />
  </g>
</svg>
